<mxfile host="app.diagrams.net" agent="Mozilla/5.0 (X11; Linux x86_64) AppleWebKit/537.36 (KHTML, like Gecko) Chrome/129.0.0.0 Safari/537.36" version="24.7.17">
  <diagram name="Page-1" id="CFjA4EjbfRRrWEpo0-3h">
    <mxGraphModel dx="2049" dy="1086" grid="1" gridSize="10" guides="1" tooltips="1" connect="1" arrows="1" fold="1" page="1" pageScale="1" pageWidth="1700" pageHeight="1100" math="0" shadow="0">
      <root>
        <mxCell id="0" />
        <mxCell id="1" parent="0" />
        <mxCell id="9vmZPMfPVr4uKUoQJtwA-9" value="&lt;i&gt;&amp;lt;&amp;lt;Interface&amp;gt;&amp;gt;&lt;/i&gt;&lt;div&gt;&lt;i&gt;Movie&lt;/i&gt;&lt;/div&gt;" style="swimlane;fontStyle=0;childLayout=stackLayout;horizontal=1;startSize=40;fillColor=#d5e8d4;horizontalStack=0;resizeParent=1;resizeParentMax=0;resizeLast=0;collapsible=1;marginBottom=0;whiteSpace=wrap;html=1;strokeColor=#82b366;rounded=1;fontFamily=Courier New;" vertex="1" parent="1">
          <mxGeometry x="3000" y="1814" width="240" height="170" as="geometry" />
        </mxCell>
        <mxCell id="9vmZPMfPVr4uKUoQJtwA-10" value="- title: String" style="text;strokeColor=none;fillColor=none;align=left;verticalAlign=top;spacingLeft=4;spacingRight=4;overflow=hidden;rotatable=0;points=[[0,0.5],[1,0.5]];portConstraint=eastwest;whiteSpace=wrap;html=1;rounded=1;fontFamily=Courier New;" vertex="1" parent="9vmZPMfPVr4uKUoQJtwA-9">
          <mxGeometry y="40" width="240" height="26" as="geometry" />
        </mxCell>
        <mxCell id="9vmZPMfPVr4uKUoQJtwA-11" value="- genre: String" style="text;strokeColor=none;fillColor=none;align=left;verticalAlign=top;spacingLeft=4;spacingRight=4;overflow=hidden;rotatable=0;points=[[0,0.5],[1,0.5]];portConstraint=eastwest;whiteSpace=wrap;html=1;rounded=1;fontFamily=Courier New;" vertex="1" parent="9vmZPMfPVr4uKUoQJtwA-9">
          <mxGeometry y="66" width="240" height="26" as="geometry" />
        </mxCell>
        <mxCell id="9vmZPMfPVr4uKUoQJtwA-12" value="- runTime: int" style="text;strokeColor=none;fillColor=none;align=left;verticalAlign=top;spacingLeft=4;spacingRight=4;overflow=hidden;rotatable=0;points=[[0,0.5],[1,0.5]];portConstraint=eastwest;whiteSpace=wrap;html=1;rounded=1;fontFamily=Courier New;" vertex="1" parent="9vmZPMfPVr4uKUoQJtwA-9">
          <mxGeometry y="92" width="240" height="26" as="geometry" />
        </mxCell>
        <mxCell id="9vmZPMfPVr4uKUoQJtwA-13" value="- ageClassification: String" style="text;strokeColor=none;fillColor=none;align=left;verticalAlign=top;spacingLeft=4;spacingRight=4;overflow=hidden;rotatable=0;points=[[0,0.5],[1,0.5]];portConstraint=eastwest;whiteSpace=wrap;html=1;rounded=1;fontFamily=Courier New;" vertex="1" parent="9vmZPMfPVr4uKUoQJtwA-9">
          <mxGeometry y="118" width="240" height="26" as="geometry" />
        </mxCell>
        <mxCell id="9vmZPMfPVr4uKUoQJtwA-14" value="- releaseDate: String" style="text;strokeColor=none;fillColor=none;align=left;verticalAlign=top;spacingLeft=4;spacingRight=4;overflow=hidden;rotatable=0;points=[[0,0.5],[1,0.5]];portConstraint=eastwest;whiteSpace=wrap;html=1;rounded=1;fontFamily=Courier New;" vertex="1" parent="9vmZPMfPVr4uKUoQJtwA-9">
          <mxGeometry y="144" width="240" height="26" as="geometry" />
        </mxCell>
        <mxCell id="9vmZPMfPVr4uKUoQJtwA-15" style="edgeStyle=orthogonalEdgeStyle;rounded=1;orthogonalLoop=1;jettySize=auto;html=1;dashed=1;dashPattern=8 8;endArrow=block;endFill=0;fontFamily=Courier New;" edge="1" parent="1" target="9vmZPMfPVr4uKUoQJtwA-9">
          <mxGeometry relative="1" as="geometry">
            <Array as="points">
              <mxPoint x="2880" y="1904" />
            </Array>
            <mxPoint x="2880" y="2034" as="sourcePoint" />
          </mxGeometry>
        </mxCell>
        <mxCell id="9vmZPMfPVr4uKUoQJtwA-16" value="&amp;lt;&amp;lt;implements&amp;gt;&amp;gt;" style="edgeLabel;html=1;align=center;verticalAlign=middle;resizable=0;points=[];fontFamily=Courier New;rounded=1;" vertex="1" connectable="0" parent="9vmZPMfPVr4uKUoQJtwA-15">
          <mxGeometry x="0.13" y="1" relative="1" as="geometry">
            <mxPoint as="offset" />
          </mxGeometry>
        </mxCell>
        <mxCell id="9vmZPMfPVr4uKUoQJtwA-17" value="Film" style="swimlane;fontStyle=0;childLayout=stackLayout;horizontal=1;startSize=26;fillColor=none;horizontalStack=0;resizeParent=1;resizeParentMax=0;resizeLast=0;collapsible=1;marginBottom=0;whiteSpace=wrap;html=1;fontFamily=Courier New;rounded=1;" vertex="1" parent="1">
          <mxGeometry x="2380" y="2004" width="140" height="78" as="geometry" />
        </mxCell>
        <mxCell id="9vmZPMfPVr4uKUoQJtwA-18" value="- director: String" style="text;strokeColor=none;fillColor=none;align=left;verticalAlign=top;spacingLeft=4;spacingRight=4;overflow=hidden;rotatable=0;points=[[0,0.5],[1,0.5]];portConstraint=eastwest;whiteSpace=wrap;html=1;fontFamily=Courier New;rounded=1;" vertex="1" parent="9vmZPMfPVr4uKUoQJtwA-17">
          <mxGeometry y="26" width="140" height="26" as="geometry" />
        </mxCell>
        <mxCell id="9vmZPMfPVr4uKUoQJtwA-19" value="- cast: String[ ]" style="text;strokeColor=none;fillColor=none;align=left;verticalAlign=top;spacingLeft=4;spacingRight=4;overflow=hidden;rotatable=0;points=[[0,0.5],[1,0.5]];portConstraint=eastwest;whiteSpace=wrap;html=1;fontFamily=Courier New;rounded=1;" vertex="1" parent="9vmZPMfPVr4uKUoQJtwA-17">
          <mxGeometry y="52" width="140" height="26" as="geometry" />
        </mxCell>
        <mxCell id="9vmZPMfPVr4uKUoQJtwA-20" style="edgeStyle=orthogonalEdgeStyle;rounded=1;orthogonalLoop=1;jettySize=auto;html=1;dashed=1;dashPattern=8 8;endArrow=block;endFill=0;fontFamily=Courier New;" edge="1" parent="1" target="9vmZPMfPVr4uKUoQJtwA-9">
          <mxGeometry relative="1" as="geometry">
            <mxPoint x="3120" y="2054" as="sourcePoint" />
          </mxGeometry>
        </mxCell>
        <mxCell id="9vmZPMfPVr4uKUoQJtwA-21" value="&amp;lt;&amp;lt;implements&amp;gt;&amp;gt;" style="edgeLabel;html=1;align=center;verticalAlign=middle;resizable=0;points=[];fontFamily=Courier New;rounded=1;" vertex="1" connectable="0" parent="9vmZPMfPVr4uKUoQJtwA-20">
          <mxGeometry x="-0.0645" relative="1" as="geometry">
            <mxPoint as="offset" />
          </mxGeometry>
        </mxCell>
        <mxCell id="9vmZPMfPVr4uKUoQJtwA-22" value="Documentary" style="swimlane;fontStyle=0;childLayout=stackLayout;horizontal=1;startSize=26;fillColor=none;horizontalStack=0;resizeParent=1;resizeParentMax=0;resizeLast=0;collapsible=1;marginBottom=0;whiteSpace=wrap;html=1;fontFamily=Courier New;rounded=1;" vertex="1" parent="1">
          <mxGeometry x="3070" y="1904" width="140" height="78" as="geometry" />
        </mxCell>
        <mxCell id="9vmZPMfPVr4uKUoQJtwA-24" value="- narrator: String" style="text;strokeColor=none;fillColor=none;align=left;verticalAlign=top;spacingLeft=4;spacingRight=4;overflow=hidden;rotatable=0;points=[[0,0.5],[1,0.5]];portConstraint=eastwest;whiteSpace=wrap;html=1;fontFamily=Courier New;rounded=1;" vertex="1" parent="9vmZPMfPVr4uKUoQJtwA-22">
          <mxGeometry y="26" width="140" height="26" as="geometry" />
        </mxCell>
        <mxCell id="9vmZPMfPVr4uKUoQJtwA-23" value="- theme: String" style="text;strokeColor=none;fillColor=none;align=left;verticalAlign=top;spacingLeft=4;spacingRight=4;overflow=hidden;rotatable=0;points=[[0,0.5],[1,0.5]];portConstraint=eastwest;whiteSpace=wrap;html=1;fontFamily=Courier New;rounded=1;" vertex="1" parent="9vmZPMfPVr4uKUoQJtwA-22">
          <mxGeometry y="52" width="140" height="26" as="geometry" />
        </mxCell>
        <mxCell id="9vmZPMfPVr4uKUoQJtwA-25" style="edgeStyle=orthogonalEdgeStyle;rounded=1;orthogonalLoop=1;jettySize=auto;html=1;dashed=1;dashPattern=8 8;endArrow=block;endFill=0;fontFamily=Courier New;" edge="1" parent="1" target="9vmZPMfPVr4uKUoQJtwA-9">
          <mxGeometry relative="1" as="geometry">
            <Array as="points">
              <mxPoint x="3340" y="1904" />
            </Array>
            <mxPoint x="3340" y="2014" as="sourcePoint" />
          </mxGeometry>
        </mxCell>
        <mxCell id="9vmZPMfPVr4uKUoQJtwA-26" value="&amp;lt;&amp;lt;implements&amp;gt;&amp;gt;" style="edgeLabel;html=1;align=center;verticalAlign=middle;resizable=0;points=[];fontFamily=Courier New;rounded=1;" vertex="1" connectable="0" parent="9vmZPMfPVr4uKUoQJtwA-25">
          <mxGeometry x="0.0775" relative="1" as="geometry">
            <mxPoint as="offset" />
          </mxGeometry>
        </mxCell>
        <mxCell id="9vmZPMfPVr4uKUoQJtwA-27" value="Animated" style="swimlane;fontStyle=0;childLayout=stackLayout;horizontal=1;startSize=26;fillColor=none;horizontalStack=0;resizeParent=1;resizeParentMax=0;resizeLast=0;collapsible=1;marginBottom=0;whiteSpace=wrap;html=1;fontFamily=Courier New;rounded=1;" vertex="1" parent="1">
          <mxGeometry x="3270" y="1864" width="230" height="130" as="geometry" />
        </mxCell>
        <mxCell id="9vmZPMfPVr4uKUoQJtwA-31" value="- animationTechnique: String" style="text;strokeColor=none;fillColor=none;align=left;verticalAlign=top;spacingLeft=4;spacingRight=4;overflow=hidden;rotatable=0;points=[[0,0.5],[1,0.5]];portConstraint=eastwest;whiteSpace=wrap;html=1;fontFamily=Courier New;rounded=1;" vertex="1" parent="9vmZPMfPVr4uKUoQJtwA-27">
          <mxGeometry y="26" width="230" height="26" as="geometry" />
        </mxCell>
        <mxCell id="9vmZPMfPVr4uKUoQJtwA-28" value="+ SM = &quot;StopMotion&quot; : String" style="text;strokeColor=none;fillColor=none;align=left;verticalAlign=top;spacingLeft=4;spacingRight=4;overflow=hidden;rotatable=0;points=[[0,0.5],[1,0.5]];portConstraint=eastwest;whiteSpace=wrap;html=1;fontFamily=Courier New;rounded=1;" vertex="1" parent="9vmZPMfPVr4uKUoQJtwA-27">
          <mxGeometry y="52" width="230" height="26" as="geometry" />
        </mxCell>
        <mxCell id="9vmZPMfPVr4uKUoQJtwA-29" value="+ 3D = &quot;3D&quot; : String" style="text;strokeColor=none;fillColor=none;align=left;verticalAlign=top;spacingLeft=4;spacingRight=4;overflow=hidden;rotatable=0;points=[[0,0.5],[1,0.5]];portConstraint=eastwest;whiteSpace=wrap;html=1;fontFamily=Courier New;rounded=1;" vertex="1" parent="9vmZPMfPVr4uKUoQJtwA-27">
          <mxGeometry y="78" width="230" height="26" as="geometry" />
        </mxCell>
        <mxCell id="9vmZPMfPVr4uKUoQJtwA-30" value="+ 2D = &quot;2D&quot; : String" style="text;strokeColor=none;fillColor=none;align=left;verticalAlign=top;spacingLeft=4;spacingRight=4;overflow=hidden;rotatable=0;points=[[0,0.5],[1,0.5]];portConstraint=eastwest;whiteSpace=wrap;html=1;fontFamily=Courier New;rounded=1;" vertex="1" parent="9vmZPMfPVr4uKUoQJtwA-27">
          <mxGeometry y="104" width="230" height="26" as="geometry" />
        </mxCell>
        <mxCell id="9vmZPMfPVr4uKUoQJtwA-32" style="edgeStyle=orthogonalEdgeStyle;rounded=1;orthogonalLoop=1;jettySize=auto;html=1;endArrow=open;endFill=0;" edge="1" parent="1" target="9vmZPMfPVr4uKUoQJtwA-49">
          <mxGeometry relative="1" as="geometry">
            <mxPoint x="3120" y="1472" as="sourcePoint" />
          </mxGeometry>
        </mxCell>
        <mxCell id="9vmZPMfPVr4uKUoQJtwA-33" value="showtimes" style="edgeLabel;html=1;align=center;verticalAlign=middle;resizable=0;points=[];rounded=1;fontFamily=Courier New;" vertex="1" connectable="0" parent="9vmZPMfPVr4uKUoQJtwA-32">
          <mxGeometry x="-0.0082" y="-2" relative="1" as="geometry">
            <mxPoint as="offset" />
          </mxGeometry>
        </mxCell>
        <mxCell id="9vmZPMfPVr4uKUoQJtwA-34" style="edgeStyle=orthogonalEdgeStyle;rounded=1;orthogonalLoop=1;jettySize=auto;html=1;endArrow=open;endFill=0;" edge="1" parent="1" target="9vmZPMfPVr4uKUoQJtwA-57">
          <mxGeometry relative="1" as="geometry">
            <mxPoint x="2970" y="1432.9999999999995" as="sourcePoint" />
          </mxGeometry>
        </mxCell>
        <mxCell id="9vmZPMfPVr4uKUoQJtwA-35" value="theathers" style="edgeLabel;html=1;align=center;verticalAlign=middle;resizable=0;points=[];rounded=1;fontFamily=Courier New;" vertex="1" connectable="0" parent="9vmZPMfPVr4uKUoQJtwA-34">
          <mxGeometry x="-0.187" y="-2" relative="1" as="geometry">
            <mxPoint as="offset" />
          </mxGeometry>
        </mxCell>
        <mxCell id="9vmZPMfPVr4uKUoQJtwA-36" style="edgeStyle=orthogonalEdgeStyle;rounded=1;orthogonalLoop=1;jettySize=auto;html=1;endArrow=open;endFill=0;" edge="1" parent="1" source="9vmZPMfPVr4uKUoQJtwA-38" target="9vmZPMfPVr4uKUoQJtwA-73">
          <mxGeometry relative="1" as="geometry">
            <Array as="points">
              <mxPoint x="2380" y="1230" />
            </Array>
          </mxGeometry>
        </mxCell>
        <mxCell id="9vmZPMfPVr4uKUoQJtwA-37" value="users" style="edgeLabel;html=1;align=center;verticalAlign=middle;resizable=0;points=[];rounded=1;" vertex="1" connectable="0" parent="9vmZPMfPVr4uKUoQJtwA-36">
          <mxGeometry x="0.2898" y="2" relative="1" as="geometry">
            <mxPoint as="offset" />
          </mxGeometry>
        </mxCell>
        <mxCell id="9vmZPMfPVr4uKUoQJtwA-38" value="Cinema" style="swimlane;fontStyle=0;childLayout=stackLayout;horizontal=1;startSize=26;fillColor=none;horizontalStack=0;resizeParent=1;resizeParentMax=0;resizeLast=0;collapsible=1;marginBottom=0;whiteSpace=wrap;html=1;fontFamily=Courier New;rounded=1;" vertex="1" parent="1">
          <mxGeometry x="2230" y="1360" width="300" height="78" as="geometry" />
        </mxCell>
        <mxCell id="9vmZPMfPVr4uKUoQJtwA-39" value="- name: String" style="text;strokeColor=none;fillColor=none;align=left;verticalAlign=top;spacingLeft=4;spacingRight=4;overflow=hidden;rotatable=0;points=[[0,0.5],[1,0.5]];portConstraint=eastwest;whiteSpace=wrap;html=1;fontFamily=Courier New;rounded=1;" vertex="1" parent="9vmZPMfPVr4uKUoQJtwA-38">
          <mxGeometry y="26" width="300" height="26" as="geometry" />
        </mxCell>
        <mxCell id="9vmZPMfPVr4uKUoQJtwA-40" value="- address: String" style="text;strokeColor=none;fillColor=none;align=left;verticalAlign=top;spacingLeft=4;spacingRight=4;overflow=hidden;rotatable=0;points=[[0,0.5],[1,0.5]];portConstraint=eastwest;whiteSpace=wrap;html=1;fontFamily=Courier New;rounded=1;" vertex="1" parent="9vmZPMfPVr4uKUoQJtwA-38">
          <mxGeometry y="52" width="300" height="26" as="geometry" />
        </mxCell>
        <mxCell id="9vmZPMfPVr4uKUoQJtwA-41" style="edgeStyle=orthogonalEdgeStyle;rounded=1;orthogonalLoop=1;jettySize=auto;html=1;endArrow=open;endFill=0;" edge="1" parent="1" source="9vmZPMfPVr4uKUoQJtwA-49" target="9vmZPMfPVr4uKUoQJtwA-9">
          <mxGeometry relative="1" as="geometry" />
        </mxCell>
        <mxCell id="9vmZPMfPVr4uKUoQJtwA-42" value="movie" style="edgeLabel;html=1;align=center;verticalAlign=middle;resizable=0;points=[];rounded=1;fontFamily=Courier New;" vertex="1" connectable="0" parent="9vmZPMfPVr4uKUoQJtwA-41">
          <mxGeometry x="-0.09" relative="1" as="geometry">
            <mxPoint as="offset" />
          </mxGeometry>
        </mxCell>
        <mxCell id="9vmZPMfPVr4uKUoQJtwA-43" style="edgeStyle=orthogonalEdgeStyle;rounded=1;orthogonalLoop=1;jettySize=auto;html=1;endArrow=open;endFill=0;" edge="1" parent="1" source="9vmZPMfPVr4uKUoQJtwA-49" target="9vmZPMfPVr4uKUoQJtwA-63">
          <mxGeometry relative="1" as="geometry">
            <Array as="points">
              <mxPoint x="2520" y="1694" />
              <mxPoint x="2520" y="1760" />
            </Array>
          </mxGeometry>
        </mxCell>
        <mxCell id="9vmZPMfPVr4uKUoQJtwA-44" value="availableSeats" style="edgeLabel;html=1;align=center;verticalAlign=middle;resizable=0;points=[];rounded=1;fontFamily=Courier New;" vertex="1" connectable="0" parent="9vmZPMfPVr4uKUoQJtwA-43">
          <mxGeometry x="-0.2853" y="1" relative="1" as="geometry">
            <mxPoint x="-1" y="-30" as="offset" />
          </mxGeometry>
        </mxCell>
        <mxCell id="9vmZPMfPVr4uKUoQJtwA-45" style="edgeStyle=orthogonalEdgeStyle;rounded=1;orthogonalLoop=1;jettySize=auto;html=1;endArrow=open;endFill=0;" edge="1" parent="1" source="9vmZPMfPVr4uKUoQJtwA-49" target="9vmZPMfPVr4uKUoQJtwA-57">
          <mxGeometry relative="1" as="geometry">
            <Array as="points">
              <mxPoint x="2500" y="1634" />
              <mxPoint x="2500" y="1574" />
            </Array>
          </mxGeometry>
        </mxCell>
        <mxCell id="9vmZPMfPVr4uKUoQJtwA-46" value="theater" style="edgeLabel;html=1;align=center;verticalAlign=middle;resizable=0;points=[];rounded=1;" vertex="1" connectable="0" parent="9vmZPMfPVr4uKUoQJtwA-45">
          <mxGeometry x="-0.26" y="-1" relative="1" as="geometry">
            <mxPoint as="offset" />
          </mxGeometry>
        </mxCell>
        <mxCell id="9vmZPMfPVr4uKUoQJtwA-47" style="edgeStyle=orthogonalEdgeStyle;rounded=1;orthogonalLoop=1;jettySize=auto;html=1;endArrow=open;endFill=0;" edge="1" parent="1" source="9vmZPMfPVr4uKUoQJtwA-49" target="9vmZPMfPVr4uKUoQJtwA-98">
          <mxGeometry relative="1" as="geometry">
            <Array as="points">
              <mxPoint x="3290" y="1664" />
              <mxPoint x="3290" y="1664" />
            </Array>
          </mxGeometry>
        </mxCell>
        <mxCell id="9vmZPMfPVr4uKUoQJtwA-48" value="Tickets" style="edgeLabel;html=1;align=center;verticalAlign=middle;resizable=0;points=[];rounded=1;fontFamily=Courier New;" vertex="1" connectable="0" parent="9vmZPMfPVr4uKUoQJtwA-47">
          <mxGeometry x="-0.0976" y="1" relative="1" as="geometry">
            <mxPoint y="1" as="offset" />
          </mxGeometry>
        </mxCell>
        <mxCell id="9vmZPMfPVr4uKUoQJtwA-49" value="ShowTime" style="swimlane;fontStyle=0;childLayout=stackLayout;horizontal=1;startSize=26;fillColor=none;horizontalStack=0;resizeParent=1;resizeParentMax=0;resizeLast=0;collapsible=1;marginBottom=0;whiteSpace=wrap;html=1;fontFamily=Courier New;rounded=1;" vertex="1" parent="1">
          <mxGeometry x="3050" y="1634" width="140" height="104" as="geometry" />
        </mxCell>
        <mxCell id="9vmZPMfPVr4uKUoQJtwA-50" value="- id: String" style="text;strokeColor=none;fillColor=none;align=left;verticalAlign=top;spacingLeft=4;spacingRight=4;overflow=hidden;rotatable=0;points=[[0,0.5],[1,0.5]];portConstraint=eastwest;whiteSpace=wrap;html=1;fontFamily=Courier New;rounded=1;" vertex="1" parent="9vmZPMfPVr4uKUoQJtwA-49">
          <mxGeometry y="26" width="140" height="26" as="geometry" />
        </mxCell>
        <mxCell id="9vmZPMfPVr4uKUoQJtwA-51" value="- date: String" style="text;strokeColor=none;fillColor=none;align=left;verticalAlign=top;spacingLeft=4;spacingRight=4;overflow=hidden;rotatable=0;points=[[0,0.5],[1,0.5]];portConstraint=eastwest;whiteSpace=wrap;html=1;fontFamily=Courier New;rounded=1;" vertex="1" parent="9vmZPMfPVr4uKUoQJtwA-49">
          <mxGeometry y="52" width="140" height="26" as="geometry" />
        </mxCell>
        <mxCell id="9vmZPMfPVr4uKUoQJtwA-52" value="- hour: String" style="text;strokeColor=none;fillColor=none;align=left;verticalAlign=top;spacingLeft=4;spacingRight=4;overflow=hidden;rotatable=0;points=[[0,0.5],[1,0.5]];portConstraint=eastwest;whiteSpace=wrap;html=1;fontFamily=Courier New;rounded=1;" vertex="1" parent="9vmZPMfPVr4uKUoQJtwA-49">
          <mxGeometry y="78" width="140" height="26" as="geometry" />
        </mxCell>
        <mxCell id="9vmZPMfPVr4uKUoQJtwA-53" value="0 ... * Map of Showtimes" style="text;html=1;align=center;verticalAlign=middle;resizable=0;points=[];autosize=1;strokeColor=none;fillColor=none;fontFamily=Courier New;fontSize=9;" vertex="1" parent="1">
          <mxGeometry x="3175" y="1501" width="150" height="20" as="geometry" />
        </mxCell>
        <mxCell id="9vmZPMfPVr4uKUoQJtwA-54" value="Map of showtimes where each key is the id of the Showtime" style="shape=note;strokeWidth=2;fontSize=10;size=20;whiteSpace=wrap;html=1;fillColor=#fff2cc;strokeColor=#d6b656;fontColor=#666600;rounded=1;fontFamily=Helvetica;" vertex="1" parent="1">
          <mxGeometry x="3170" y="1526" width="160" height="80" as="geometry" />
        </mxCell>
        <mxCell id="9vmZPMfPVr4uKUoQJtwA-55" style="edgeStyle=orthogonalEdgeStyle;rounded=1;orthogonalLoop=1;jettySize=auto;html=1;endArrow=open;endFill=0;" edge="1" parent="1" source="9vmZPMfPVr4uKUoQJtwA-57" target="9vmZPMfPVr4uKUoQJtwA-63">
          <mxGeometry relative="1" as="geometry" />
        </mxCell>
        <mxCell id="9vmZPMfPVr4uKUoQJtwA-56" value="seats" style="edgeLabel;html=1;align=center;verticalAlign=middle;resizable=0;points=[];rounded=1;fontFamily=Courier New;" vertex="1" connectable="0" parent="9vmZPMfPVr4uKUoQJtwA-55">
          <mxGeometry x="-0.0119" y="-1" relative="1" as="geometry">
            <mxPoint as="offset" />
          </mxGeometry>
        </mxCell>
        <mxCell id="9vmZPMfPVr4uKUoQJtwA-57" value="Theater" style="swimlane;fontStyle=0;childLayout=stackLayout;horizontal=1;startSize=26;fillColor=none;horizontalStack=0;resizeParent=1;resizeParentMax=0;resizeLast=0;collapsible=1;marginBottom=0;whiteSpace=wrap;html=1;fontFamily=Courier New;rounded=1;" vertex="1" parent="1">
          <mxGeometry x="2047.5" y="1466" width="210" height="156" as="geometry" />
        </mxCell>
        <mxCell id="9vmZPMfPVr4uKUoQJtwA-58" value="+ IMAX = &quot;Imax&quot;: String" style="text;strokeColor=none;fillColor=none;align=left;verticalAlign=top;spacingLeft=4;spacingRight=4;overflow=hidden;rotatable=0;points=[[0,0.5],[1,0.5]];portConstraint=eastwest;whiteSpace=wrap;html=1;fontFamily=Courier New;rounded=1;" vertex="1" parent="9vmZPMfPVr4uKUoQJtwA-57">
          <mxGeometry y="26" width="210" height="26" as="geometry" />
        </mxCell>
        <mxCell id="9vmZPMfPVr4uKUoQJtwA-59" value="+ 3D = &quot;3D&quot;: String" style="text;strokeColor=none;fillColor=none;align=left;verticalAlign=top;spacingLeft=4;spacingRight=4;overflow=hidden;rotatable=0;points=[[0,0.5],[1,0.5]];portConstraint=eastwest;whiteSpace=wrap;html=1;fontFamily=Courier New;rounded=1;" vertex="1" parent="9vmZPMfPVr4uKUoQJtwA-57">
          <mxGeometry y="52" width="210" height="26" as="geometry" />
        </mxCell>
        <mxCell id="9vmZPMfPVr4uKUoQJtwA-60" value="- number: int" style="text;strokeColor=none;fillColor=none;align=left;verticalAlign=top;spacingLeft=4;spacingRight=4;overflow=hidden;rotatable=0;points=[[0,0.5],[1,0.5]];portConstraint=eastwest;whiteSpace=wrap;html=1;fontFamily=Courier New;rounded=1;" vertex="1" parent="9vmZPMfPVr4uKUoQJtwA-57">
          <mxGeometry y="78" width="210" height="26" as="geometry" />
        </mxCell>
        <mxCell id="9vmZPMfPVr4uKUoQJtwA-61" value="- seatCapacity: id" style="text;strokeColor=none;fillColor=none;align=left;verticalAlign=top;spacingLeft=4;spacingRight=4;overflow=hidden;rotatable=0;points=[[0,0.5],[1,0.5]];portConstraint=eastwest;whiteSpace=wrap;html=1;fontFamily=Courier New;rounded=1;" vertex="1" parent="9vmZPMfPVr4uKUoQJtwA-57">
          <mxGeometry y="104" width="210" height="26" as="geometry" />
        </mxCell>
        <mxCell id="9vmZPMfPVr4uKUoQJtwA-62" value="- technology: String" style="text;strokeColor=none;fillColor=none;align=left;verticalAlign=top;spacingLeft=4;spacingRight=4;overflow=hidden;rotatable=0;points=[[0,0.5],[1,0.5]];portConstraint=eastwest;whiteSpace=wrap;html=1;fontFamily=Courier New;rounded=1;" vertex="1" parent="9vmZPMfPVr4uKUoQJtwA-57">
          <mxGeometry y="130" width="210" height="26" as="geometry" />
        </mxCell>
        <mxCell id="9vmZPMfPVr4uKUoQJtwA-63" value="Seat" style="swimlane;fontStyle=0;childLayout=stackLayout;horizontal=1;startSize=26;fillColor=none;horizontalStack=0;resizeParent=1;resizeParentMax=0;resizeLast=0;collapsible=1;marginBottom=0;whiteSpace=wrap;html=1;fontFamily=Courier New;rounded=1;" vertex="1" parent="1">
          <mxGeometry x="2040" y="1708" width="225" height="156" as="geometry" />
        </mxCell>
        <mxCell id="9vmZPMfPVr4uKUoQJtwA-64" value="+ REG = &quot;Regular&quot;: String" style="text;strokeColor=none;fillColor=none;align=left;verticalAlign=top;spacingLeft=4;spacingRight=4;overflow=hidden;rotatable=0;points=[[0,0.5],[1,0.5]];portConstraint=eastwest;whiteSpace=wrap;html=1;fontFamily=Courier New;rounded=1;" vertex="1" parent="9vmZPMfPVr4uKUoQJtwA-63">
          <mxGeometry y="26" width="225" height="26" as="geometry" />
        </mxCell>
        <mxCell id="9vmZPMfPVr4uKUoQJtwA-65" value="+ PRM = &quot;Premium&quot;: String" style="text;strokeColor=none;fillColor=none;align=left;verticalAlign=top;spacingLeft=4;spacingRight=4;overflow=hidden;rotatable=0;points=[[0,0.5],[1,0.5]];portConstraint=eastwest;whiteSpace=wrap;html=1;fontFamily=Courier New;rounded=1;" vertex="1" parent="9vmZPMfPVr4uKUoQJtwA-63">
          <mxGeometry y="52" width="225" height="26" as="geometry" />
        </mxCell>
        <mxCell id="9vmZPMfPVr4uKUoQJtwA-66" value="- numberSeat: id" style="text;strokeColor=none;fillColor=none;align=left;verticalAlign=top;spacingLeft=4;spacingRight=4;overflow=hidden;rotatable=0;points=[[0,0.5],[1,0.5]];portConstraint=eastwest;whiteSpace=wrap;html=1;fontFamily=Courier New;rounded=1;" vertex="1" parent="9vmZPMfPVr4uKUoQJtwA-63">
          <mxGeometry y="78" width="225" height="26" as="geometry" />
        </mxCell>
        <mxCell id="9vmZPMfPVr4uKUoQJtwA-67" value="- row: String" style="text;strokeColor=none;fillColor=none;align=left;verticalAlign=top;spacingLeft=4;spacingRight=4;overflow=hidden;rotatable=0;points=[[0,0.5],[1,0.5]];portConstraint=eastwest;whiteSpace=wrap;html=1;fontFamily=Courier New;rounded=1;" vertex="1" parent="9vmZPMfPVr4uKUoQJtwA-63">
          <mxGeometry y="104" width="225" height="26" as="geometry" />
        </mxCell>
        <mxCell id="9vmZPMfPVr4uKUoQJtwA-68" value="- type: String" style="text;strokeColor=none;fillColor=none;align=left;verticalAlign=top;spacingLeft=4;spacingRight=4;overflow=hidden;rotatable=0;points=[[0,0.5],[1,0.5]];portConstraint=eastwest;whiteSpace=wrap;html=1;fontFamily=Courier New;rounded=1;" vertex="1" parent="9vmZPMfPVr4uKUoQJtwA-63">
          <mxGeometry y="130" width="225" height="26" as="geometry" />
        </mxCell>
        <mxCell id="9vmZPMfPVr4uKUoQJtwA-69" value="1 ... * List of Seats" style="text;html=1;align=center;verticalAlign=middle;resizable=0;points=[];autosize=1;strokeColor=none;fillColor=none;fontFamily=Courier New;fontSize=10;" vertex="1" parent="1">
          <mxGeometry x="2800" y="1624" width="150" height="30" as="geometry" />
        </mxCell>
        <mxCell id="9vmZPMfPVr4uKUoQJtwA-71" value="0 ... * List of Seats" style="text;html=1;align=center;verticalAlign=middle;resizable=0;points=[];autosize=1;strokeColor=none;fillColor=none;fontFamily=Courier New;fontSize=10;" vertex="1" parent="1">
          <mxGeometry x="2290" y="1622" width="150" height="30" as="geometry" />
        </mxCell>
        <mxCell id="9vmZPMfPVr4uKUoQJtwA-72" value="&lt;font style=&quot;font-size: 8px;&quot;&gt;Each time a ticket is sold, the seat corresponding to the ticket is removed from the availableTicket list.&lt;/font&gt;" style="shape=note;strokeWidth=2;fontSize=10;size=20;whiteSpace=wrap;html=1;fillColor=#fff2cc;strokeColor=#d6b656;fontColor=#666600;rounded=1;fontFamily=Helvetica;" vertex="1" parent="1">
          <mxGeometry x="2290" y="1654" width="170" height="80" as="geometry" />
        </mxCell>
        <mxCell id="9vmZPMfPVr4uKUoQJtwA-73" value="&lt;i&gt;&amp;lt;&amp;lt;Abstract&amp;gt;&amp;gt;&lt;/i&gt;&lt;div&gt;&lt;i&gt;User&lt;/i&gt;&lt;/div&gt;" style="swimlane;fontStyle=0;childLayout=stackLayout;horizontal=1;startSize=40;fillColor=#f8cecc;horizontalStack=0;resizeParent=1;resizeParentMax=0;resizeLast=0;collapsible=1;marginBottom=0;whiteSpace=wrap;html=1;strokeColor=#b85450;rounded=1;fontFamily=Courier New;" vertex="1" parent="1">
          <mxGeometry x="2660" y="1180" width="240" height="118" as="geometry" />
        </mxCell>
        <mxCell id="9vmZPMfPVr4uKUoQJtwA-74" value="# id: String" style="text;strokeColor=none;fillColor=none;align=left;verticalAlign=top;spacingLeft=4;spacingRight=4;overflow=hidden;rotatable=0;points=[[0,0.5],[1,0.5]];portConstraint=eastwest;whiteSpace=wrap;html=1;rounded=1;fontFamily=Courier New;" vertex="1" parent="9vmZPMfPVr4uKUoQJtwA-73">
          <mxGeometry y="40" width="240" height="26" as="geometry" />
        </mxCell>
        <mxCell id="9vmZPMfPVr4uKUoQJtwA-75" value="# email: String" style="text;strokeColor=none;fillColor=none;align=left;verticalAlign=top;spacingLeft=4;spacingRight=4;overflow=hidden;rotatable=0;points=[[0,0.5],[1,0.5]];portConstraint=eastwest;whiteSpace=wrap;html=1;rounded=1;fontFamily=Courier New;" vertex="1" parent="9vmZPMfPVr4uKUoQJtwA-73">
          <mxGeometry y="66" width="240" height="26" as="geometry" />
        </mxCell>
        <mxCell id="9vmZPMfPVr4uKUoQJtwA-76" value="# password: String" style="text;strokeColor=none;fillColor=none;align=left;verticalAlign=top;spacingLeft=4;spacingRight=4;overflow=hidden;rotatable=0;points=[[0,0.5],[1,0.5]];portConstraint=eastwest;whiteSpace=wrap;html=1;rounded=1;fontFamily=Courier New;" vertex="1" parent="9vmZPMfPVr4uKUoQJtwA-73">
          <mxGeometry y="92" width="240" height="26" as="geometry" />
        </mxCell>
        <mxCell id="9vmZPMfPVr4uKUoQJtwA-77" value="0 ... * Map of Users" style="text;html=1;align=center;verticalAlign=middle;resizable=0;points=[];autosize=1;strokeColor=none;fillColor=none;fontFamily=Courier New;fontSize=10;" vertex="1" parent="1">
          <mxGeometry x="2445" y="1080" width="140" height="30" as="geometry" />
        </mxCell>
        <mxCell id="9vmZPMfPVr4uKUoQJtwA-78" value="Map of Users where each key is the id of the User" style="shape=note;strokeWidth=2;fontSize=10;size=20;whiteSpace=wrap;html=1;fillColor=#fff2cc;strokeColor=#d6b656;fontColor=#666600;rounded=1;fontFamily=Helvetica;" vertex="1" parent="1">
          <mxGeometry x="2440" y="1120" width="160" height="80" as="geometry" />
        </mxCell>
        <mxCell id="9vmZPMfPVr4uKUoQJtwA-79" style="edgeStyle=orthogonalEdgeStyle;rounded=1;orthogonalLoop=1;jettySize=auto;html=1;endArrow=block;endFill=0;" edge="1" parent="1" source="9vmZPMfPVr4uKUoQJtwA-81" target="9vmZPMfPVr4uKUoQJtwA-73">
          <mxGeometry relative="1" as="geometry" />
        </mxCell>
        <mxCell id="9vmZPMfPVr4uKUoQJtwA-80" value="&amp;lt;&amp;lt;extends&amp;gt;&amp;gt;" style="edgeLabel;html=1;align=center;verticalAlign=middle;resizable=0;points=[];rounded=1;" vertex="1" connectable="0" parent="9vmZPMfPVr4uKUoQJtwA-79">
          <mxGeometry x="0.0195" y="2" relative="1" as="geometry">
            <mxPoint x="2" y="-2" as="offset" />
          </mxGeometry>
        </mxCell>
        <mxCell id="9vmZPMfPVr4uKUoQJtwA-81" value="Employee" style="swimlane;fontStyle=0;childLayout=stackLayout;horizontal=1;startSize=26;fillColor=none;horizontalStack=0;resizeParent=1;resizeParentMax=0;resizeLast=0;collapsible=1;marginBottom=0;whiteSpace=wrap;html=1;fontFamily=Courier New;rounded=1;" vertex="1" parent="1">
          <mxGeometry x="3090" y="1213" width="140" height="52" as="geometry" />
        </mxCell>
        <mxCell id="9vmZPMfPVr4uKUoQJtwA-82" value="- role: String" style="text;strokeColor=none;fillColor=none;align=left;verticalAlign=top;spacingLeft=4;spacingRight=4;overflow=hidden;rotatable=0;points=[[0,0.5],[1,0.5]];portConstraint=eastwest;whiteSpace=wrap;html=1;fontFamily=Courier New;rounded=1;" vertex="1" parent="9vmZPMfPVr4uKUoQJtwA-81">
          <mxGeometry y="26" width="140" height="26" as="geometry" />
        </mxCell>
        <mxCell id="9vmZPMfPVr4uKUoQJtwA-83" style="edgeStyle=orthogonalEdgeStyle;rounded=1;orthogonalLoop=1;jettySize=auto;html=1;endArrow=block;endFill=0;" edge="1" parent="1" source="9vmZPMfPVr4uKUoQJtwA-93" target="9vmZPMfPVr4uKUoQJtwA-73">
          <mxGeometry relative="1" as="geometry" />
        </mxCell>
        <mxCell id="9vmZPMfPVr4uKUoQJtwA-84" value="&amp;lt;&amp;lt;extends&amp;gt;&amp;gt;" style="edgeLabel;html=1;align=center;verticalAlign=middle;resizable=0;points=[];rounded=1;fontFamily=Courier New;" vertex="1" connectable="0" parent="9vmZPMfPVr4uKUoQJtwA-83">
          <mxGeometry x="-0.0342" y="1" relative="1" as="geometry">
            <mxPoint as="offset" />
          </mxGeometry>
        </mxCell>
        <mxCell id="9vmZPMfPVr4uKUoQJtwA-85" style="edgeStyle=orthogonalEdgeStyle;rounded=1;orthogonalLoop=1;jettySize=auto;html=1;endArrow=open;endFill=0;" edge="1" parent="1" source="9vmZPMfPVr4uKUoQJtwA-93" target="9vmZPMfPVr4uKUoQJtwA-98">
          <mxGeometry relative="1" as="geometry">
            <Array as="points">
              <mxPoint x="3440" y="1534" />
              <mxPoint x="3440" y="1534" />
            </Array>
          </mxGeometry>
        </mxCell>
        <mxCell id="9vmZPMfPVr4uKUoQJtwA-86" value="availableTickets" style="edgeLabel;html=1;align=center;verticalAlign=middle;resizable=0;points=[];rounded=1;fontFamily=Courier New;" vertex="1" connectable="0" parent="9vmZPMfPVr4uKUoQJtwA-85">
          <mxGeometry x="0.0549" y="-1" relative="1" as="geometry">
            <mxPoint x="-4" y="-6" as="offset" />
          </mxGeometry>
        </mxCell>
        <mxCell id="9vmZPMfPVr4uKUoQJtwA-87" style="edgeStyle=orthogonalEdgeStyle;rounded=1;orthogonalLoop=1;jettySize=auto;html=1;endArrow=open;endFill=0;" edge="1" parent="1" source="9vmZPMfPVr4uKUoQJtwA-93" target="9vmZPMfPVr4uKUoQJtwA-98">
          <mxGeometry relative="1" as="geometry">
            <Array as="points">
              <mxPoint x="3540" y="1524" />
              <mxPoint x="3540" y="1524" />
            </Array>
          </mxGeometry>
        </mxCell>
        <mxCell id="9vmZPMfPVr4uKUoQJtwA-88" value="usedTickets" style="edgeLabel;html=1;align=center;verticalAlign=middle;resizable=0;points=[];rounded=1;fontFamily=Courier New;" vertex="1" connectable="0" parent="9vmZPMfPVr4uKUoQJtwA-87">
          <mxGeometry x="0.0286" relative="1" as="geometry">
            <mxPoint as="offset" />
          </mxGeometry>
        </mxCell>
        <mxCell id="9vmZPMfPVr4uKUoQJtwA-89" style="edgeStyle=orthogonalEdgeStyle;rounded=1;orthogonalLoop=1;jettySize=auto;html=1;endArrow=open;endFill=0;" edge="1" parent="1" source="9vmZPMfPVr4uKUoQJtwA-93" target="9vmZPMfPVr4uKUoQJtwA-107">
          <mxGeometry relative="1" as="geometry">
            <Array as="points">
              <mxPoint x="3033" y="1400" />
              <mxPoint x="3033" y="1355" />
            </Array>
          </mxGeometry>
        </mxCell>
        <mxCell id="9vmZPMfPVr4uKUoQJtwA-90" value="membership" style="edgeLabel;html=1;align=center;verticalAlign=middle;resizable=0;points=[];rounded=1;fontFamily=Courier New;" vertex="1" connectable="0" parent="9vmZPMfPVr4uKUoQJtwA-89">
          <mxGeometry x="-0.2828" y="2" relative="1" as="geometry">
            <mxPoint x="29" y="-8" as="offset" />
          </mxGeometry>
        </mxCell>
        <mxCell id="9vmZPMfPVr4uKUoQJtwA-91" style="edgeStyle=orthogonalEdgeStyle;rounded=1;orthogonalLoop=1;jettySize=auto;html=1;endArrow=open;endFill=0;" edge="1" parent="1" source="9vmZPMfPVr4uKUoQJtwA-93" target="9vmZPMfPVr4uKUoQJtwA-115">
          <mxGeometry relative="1" as="geometry">
            <Array as="points">
              <mxPoint x="3960" y="1474" />
            </Array>
          </mxGeometry>
        </mxCell>
        <mxCell id="9vmZPMfPVr4uKUoQJtwA-92" value="purchases" style="edgeLabel;html=1;align=center;verticalAlign=middle;resizable=0;points=[];rounded=1;fontFamily=Courier New;" vertex="1" connectable="0" parent="9vmZPMfPVr4uKUoQJtwA-91">
          <mxGeometry x="0.0946" relative="1" as="geometry">
            <mxPoint as="offset" />
          </mxGeometry>
        </mxCell>
        <mxCell id="9vmZPMfPVr4uKUoQJtwA-93" value="Client" style="swimlane;fontStyle=0;childLayout=stackLayout;horizontal=1;startSize=17;fillColor=none;horizontalStack=0;resizeParent=1;resizeParentMax=0;resizeLast=0;collapsible=1;marginBottom=0;whiteSpace=wrap;html=1;fontFamily=Courier New;rounded=1;" vertex="1" parent="1">
          <mxGeometry x="3355" y="1424" width="330" height="60" as="geometry" />
        </mxCell>
        <mxCell id="9vmZPMfPVr4uKUoQJtwA-94" style="edgeStyle=orthogonalEdgeStyle;rounded=1;orthogonalLoop=1;jettySize=auto;html=1;endArrow=open;endFill=0;" edge="1" parent="1" source="9vmZPMfPVr4uKUoQJtwA-98" target="9vmZPMfPVr4uKUoQJtwA-93">
          <mxGeometry relative="1" as="geometry">
            <Array as="points">
              <mxPoint x="3610" y="1544" />
              <mxPoint x="3610" y="1544" />
            </Array>
          </mxGeometry>
        </mxCell>
        <mxCell id="9vmZPMfPVr4uKUoQJtwA-95" value="client" style="edgeLabel;html=1;align=center;verticalAlign=middle;resizable=0;points=[];rounded=1;fontFamily=Courier New;" vertex="1" connectable="0" parent="9vmZPMfPVr4uKUoQJtwA-94">
          <mxGeometry x="-0.0487" relative="1" as="geometry">
            <mxPoint as="offset" />
          </mxGeometry>
        </mxCell>
        <mxCell id="9vmZPMfPVr4uKUoQJtwA-96" style="edgeStyle=orthogonalEdgeStyle;rounded=1;orthogonalLoop=1;jettySize=auto;html=1;endArrow=open;endFill=0;" edge="1" parent="1" source="9vmZPMfPVr4uKUoQJtwA-98" target="9vmZPMfPVr4uKUoQJtwA-49">
          <mxGeometry relative="1" as="geometry">
            <Array as="points">
              <mxPoint x="3340" y="1714" />
              <mxPoint x="3340" y="1714" />
            </Array>
          </mxGeometry>
        </mxCell>
        <mxCell id="9vmZPMfPVr4uKUoQJtwA-97" value="showTime" style="edgeLabel;html=1;align=center;verticalAlign=middle;resizable=0;points=[];rounded=1;fontFamily=Courier New;" vertex="1" connectable="0" parent="9vmZPMfPVr4uKUoQJtwA-96">
          <mxGeometry x="0.0699" y="1" relative="1" as="geometry">
            <mxPoint as="offset" />
          </mxGeometry>
        </mxCell>
        <mxCell id="9vmZPMfPVr4uKUoQJtwA-98" value="Ticket" style="swimlane;fontStyle=0;childLayout=stackLayout;horizontal=1;startSize=26;fillColor=none;horizontalStack=0;resizeParent=1;resizeParentMax=0;resizeLast=0;collapsible=1;marginBottom=0;whiteSpace=wrap;html=1;fontFamily=Courier New;rounded=1;" vertex="1" parent="1">
          <mxGeometry x="3395" y="1614" width="250" height="130" as="geometry" />
        </mxCell>
        <mxCell id="9vmZPMfPVr4uKUoQJtwA-99" value="- id: String" style="text;strokeColor=none;fillColor=none;align=left;verticalAlign=top;spacingLeft=4;spacingRight=4;overflow=hidden;rotatable=0;points=[[0,0.5],[1,0.5]];portConstraint=eastwest;whiteSpace=wrap;html=1;fontFamily=Courier New;rounded=1;" vertex="1" parent="9vmZPMfPVr4uKUoQJtwA-98">
          <mxGeometry y="26" width="250" height="26" as="geometry" />
        </mxCell>
        <mxCell id="9vmZPMfPVr4uKUoQJtwA-100" value="- dateTime: String" style="text;strokeColor=none;fillColor=none;align=left;verticalAlign=top;spacingLeft=4;spacingRight=4;overflow=hidden;rotatable=0;points=[[0,0.5],[1,0.5]];portConstraint=eastwest;whiteSpace=wrap;html=1;fontFamily=Courier New;rounded=1;" vertex="1" parent="9vmZPMfPVr4uKUoQJtwA-98">
          <mxGeometry y="52" width="250" height="26" as="geometry" />
        </mxCell>
        <mxCell id="9vmZPMfPVr4uKUoQJtwA-101" value="- isUsed: boolean" style="text;strokeColor=none;fillColor=none;align=left;verticalAlign=top;spacingLeft=4;spacingRight=4;overflow=hidden;rotatable=0;points=[[0,0.5],[1,0.5]];portConstraint=eastwest;whiteSpace=wrap;html=1;fontFamily=Courier New;rounded=1;" vertex="1" parent="9vmZPMfPVr4uKUoQJtwA-98">
          <mxGeometry y="78" width="250" height="26" as="geometry" />
        </mxCell>
        <mxCell id="9vmZPMfPVr4uKUoQJtwA-102" value="- idSeat: String" style="text;strokeColor=none;fillColor=none;align=left;verticalAlign=top;spacingLeft=4;spacingRight=4;overflow=hidden;rotatable=0;points=[[0,0.5],[1,0.5]];portConstraint=eastwest;whiteSpace=wrap;html=1;fontFamily=Courier New;rounded=1;" vertex="1" parent="9vmZPMfPVr4uKUoQJtwA-98">
          <mxGeometry y="104" width="250" height="26" as="geometry" />
        </mxCell>
        <mxCell id="9vmZPMfPVr4uKUoQJtwA-103" value="&lt;font style=&quot;font-size: 8px;&quot;&gt;0 ... *&amp;nbsp;&lt;/font&gt;&lt;div&gt;&lt;font style=&quot;font-size: 8px;&quot;&gt;List of Tickets&lt;/font&gt;&lt;/div&gt;" style="text;html=1;align=center;verticalAlign=middle;resizable=0;points=[];autosize=1;strokeColor=none;fillColor=none;fontFamily=Courier New;fontSize=10;" vertex="1" parent="1">
          <mxGeometry x="3335" y="1486" width="100" height="40" as="geometry" />
        </mxCell>
        <mxCell id="9vmZPMfPVr4uKUoQJtwA-104" value="&lt;font style=&quot;font-size: 8px;&quot;&gt;0 ... *&amp;nbsp;&lt;/font&gt;&lt;div&gt;&lt;font style=&quot;font-size: 8px;&quot;&gt;List of Tickets&lt;/font&gt;&lt;/div&gt;" style="text;html=1;align=center;verticalAlign=middle;resizable=0;points=[];autosize=1;strokeColor=none;fillColor=none;fontFamily=Courier New;fontSize=10;" vertex="1" parent="1">
          <mxGeometry x="3440" y="1486" width="100" height="40" as="geometry" />
        </mxCell>
        <mxCell id="9vmZPMfPVr4uKUoQJtwA-105" value="When someone logs into the system, if they are an employee, they can use the logic to manage the system." style="shape=note;strokeWidth=2;fontSize=10;size=20;whiteSpace=wrap;html=1;fillColor=#fff2cc;strokeColor=#d6b656;fontColor=#666600;rounded=1;fontFamily=Helvetica;" vertex="1" parent="1">
          <mxGeometry x="2930" y="1090" width="170" height="80" as="geometry" />
        </mxCell>
        <mxCell id="9vmZPMfPVr4uKUoQJtwA-106" value="0 ... * Map of Tickets" style="text;html=1;align=center;verticalAlign=middle;resizable=0;points=[];autosize=1;strokeColor=none;fillColor=none;fontFamily=Courier New;fontSize=10;" vertex="1" parent="1">
          <mxGeometry x="3205" y="1629" width="160" height="30" as="geometry" />
        </mxCell>
        <mxCell id="9vmZPMfPVr4uKUoQJtwA-107" value="LoyaltyProgram" style="swimlane;fontStyle=0;childLayout=stackLayout;horizontal=1;startSize=26;fillColor=none;horizontalStack=0;resizeParent=1;resizeParentMax=0;resizeLast=0;collapsible=1;marginBottom=0;whiteSpace=wrap;html=1;rounded=1;fontFamily=Courier New;" vertex="1" parent="1">
          <mxGeometry x="3250" y="1290" width="230" height="130" as="geometry" />
        </mxCell>
        <mxCell id="9vmZPMfPVr4uKUoQJtwA-108" value="- memberShipLevel: String" style="text;strokeColor=none;fillColor=none;align=left;verticalAlign=top;spacingLeft=4;spacingRight=4;overflow=hidden;rotatable=0;points=[[0,0.5],[1,0.5]];portConstraint=eastwest;whiteSpace=wrap;html=1;fontFamily=Courier New;" vertex="1" parent="9vmZPMfPVr4uKUoQJtwA-107">
          <mxGeometry y="26" width="230" height="26" as="geometry" />
        </mxCell>
        <mxCell id="9vmZPMfPVr4uKUoQJtwA-109" value="- points: int" style="text;strokeColor=none;fillColor=none;align=left;verticalAlign=top;spacingLeft=4;spacingRight=4;overflow=hidden;rotatable=0;points=[[0,0.5],[1,0.5]];portConstraint=eastwest;whiteSpace=wrap;html=1;fontFamily=Courier New;" vertex="1" parent="9vmZPMfPVr4uKUoQJtwA-107">
          <mxGeometry y="52" width="230" height="26" as="geometry" />
        </mxCell>
        <mxCell id="9vmZPMfPVr4uKUoQJtwA-110" value="- discountPercentage: boolean" style="text;strokeColor=none;fillColor=none;align=left;verticalAlign=top;spacingLeft=4;spacingRight=4;overflow=hidden;rotatable=0;points=[[0,0.5],[1,0.5]];portConstraint=eastwest;whiteSpace=wrap;html=1;fontFamily=Courier New;" vertex="1" parent="9vmZPMfPVr4uKUoQJtwA-107">
          <mxGeometry y="78" width="230" height="26" as="geometry" />
        </mxCell>
        <mxCell id="9vmZPMfPVr4uKUoQJtwA-111" value="- specialBenefits&lt;span style=&quot;background-color: initial;&quot;&gt;: String&lt;/span&gt;" style="text;strokeColor=none;fillColor=none;align=left;verticalAlign=top;spacingLeft=4;spacingRight=4;overflow=hidden;rotatable=0;points=[[0,0.5],[1,0.5]];portConstraint=eastwest;whiteSpace=wrap;html=1;fontFamily=Courier New;" vertex="1" parent="9vmZPMfPVr4uKUoQJtwA-107">
          <mxGeometry y="104" width="230" height="26" as="geometry" />
        </mxCell>
        <mxCell id="9vmZPMfPVr4uKUoQJtwA-112" style="edgeStyle=orthogonalEdgeStyle;rounded=1;orthogonalLoop=1;jettySize=auto;html=1;endArrow=open;endFill=0;" edge="1" parent="1" source="9vmZPMfPVr4uKUoQJtwA-115" target="9vmZPMfPVr4uKUoQJtwA-98">
          <mxGeometry relative="1" as="geometry">
            <Array as="points">
              <mxPoint x="3800" y="1714" />
              <mxPoint x="3800" y="1714" />
            </Array>
          </mxGeometry>
        </mxCell>
        <mxCell id="9vmZPMfPVr4uKUoQJtwA-113" value="purchasedTickets" style="edgeLabel;html=1;align=center;verticalAlign=middle;resizable=0;points=[];rounded=1;fontFamily=Courier New;" vertex="1" connectable="0" parent="9vmZPMfPVr4uKUoQJtwA-112">
          <mxGeometry x="0.2185" y="-1" relative="1" as="geometry">
            <mxPoint x="23" y="-1" as="offset" />
          </mxGeometry>
        </mxCell>
        <mxCell id="9vmZPMfPVr4uKUoQJtwA-114" style="edgeStyle=orthogonalEdgeStyle;rounded=1;orthogonalLoop=1;jettySize=auto;html=1;endArrow=open;endFill=0;" edge="1" parent="1" source="9vmZPMfPVr4uKUoQJtwA-115" target="9vmZPMfPVr4uKUoQJtwA-120">
          <mxGeometry relative="1" as="geometry" />
        </mxCell>
        <mxCell id="9vmZPMfPVr4uKUoQJtwA-115" value="Purchase" style="swimlane;fontStyle=0;childLayout=stackLayout;horizontal=1;startSize=26;fillColor=none;horizontalStack=0;resizeParent=1;resizeParentMax=0;resizeLast=0;collapsible=1;marginBottom=0;whiteSpace=wrap;html=1;fontFamily=Courier New;rounded=1;" vertex="1" parent="1">
          <mxGeometry x="3830" y="1671" width="250" height="78" as="geometry" />
        </mxCell>
        <mxCell id="9vmZPMfPVr4uKUoQJtwA-116" value="- id: String" style="text;strokeColor=none;fillColor=none;align=left;verticalAlign=top;spacingLeft=4;spacingRight=4;overflow=hidden;rotatable=0;points=[[0,0.5],[1,0.5]];portConstraint=eastwest;whiteSpace=wrap;html=1;fontFamily=Courier New;rounded=1;" vertex="1" parent="9vmZPMfPVr4uKUoQJtwA-115">
          <mxGeometry y="26" width="250" height="26" as="geometry" />
        </mxCell>
        <mxCell id="9vmZPMfPVr4uKUoQJtwA-117" value="- price: int" style="text;strokeColor=none;fillColor=none;align=left;verticalAlign=top;spacingLeft=4;spacingRight=4;overflow=hidden;rotatable=0;points=[[0,0.5],[1,0.5]];portConstraint=eastwest;whiteSpace=wrap;html=1;fontFamily=Courier New;rounded=1;" vertex="1" parent="9vmZPMfPVr4uKUoQJtwA-115">
          <mxGeometry y="52" width="250" height="26" as="geometry" />
        </mxCell>
        <mxCell id="9vmZPMfPVr4uKUoQJtwA-118" value="0 ... * List of Purchases" style="text;html=1;align=center;verticalAlign=middle;resizable=0;points=[];autosize=1;strokeColor=none;fillColor=none;fontFamily=Courier New;fontSize=10;" vertex="1" parent="1">
          <mxGeometry x="3690" y="1484" width="170" height="30" as="geometry" />
        </mxCell>
        <mxCell id="9vmZPMfPVr4uKUoQJtwA-119" value="0 ... * List of Tickets" style="text;html=1;align=center;verticalAlign=middle;resizable=0;points=[];autosize=1;strokeColor=none;fillColor=none;fontFamily=Courier New;fontSize=10;" vertex="1" parent="1">
          <mxGeometry x="3655" y="1671" width="160" height="30" as="geometry" />
        </mxCell>
        <mxCell id="9vmZPMfPVr4uKUoQJtwA-120" value="&lt;i&gt;&amp;lt;&amp;lt;Interface&amp;gt;&amp;gt;&lt;/i&gt;&lt;div&gt;&lt;i&gt;PaymentMethod&lt;/i&gt;&lt;/div&gt;" style="swimlane;fontStyle=0;childLayout=stackLayout;horizontal=1;startSize=40;fillColor=#d5e8d4;horizontalStack=0;resizeParent=1;resizeParentMax=0;resizeLast=0;collapsible=1;marginBottom=0;whiteSpace=wrap;html=1;strokeColor=#82b366;rounded=1;fontFamily=Courier New;" vertex="1" parent="1">
          <mxGeometry x="3835" y="1866" width="240" height="118" as="geometry" />
        </mxCell>
        <mxCell id="9vmZPMfPVr4uKUoQJtwA-121" value="- company: String" style="text;strokeColor=none;fillColor=none;align=left;verticalAlign=top;spacingLeft=4;spacingRight=4;overflow=hidden;rotatable=0;points=[[0,0.5],[1,0.5]];portConstraint=eastwest;whiteSpace=wrap;html=1;fontFamily=Courier New;rounded=1;" vertex="1" parent="9vmZPMfPVr4uKUoQJtwA-120">
          <mxGeometry y="40" width="240" height="26" as="geometry" />
        </mxCell>
        <mxCell id="9vmZPMfPVr4uKUoQJtwA-122" value="- numberCard: String" style="text;strokeColor=none;fillColor=none;align=left;verticalAlign=top;spacingLeft=4;spacingRight=4;overflow=hidden;rotatable=0;points=[[0,0.5],[1,0.5]];portConstraint=eastwest;whiteSpace=wrap;html=1;fontFamily=Courier New;rounded=1;" vertex="1" parent="9vmZPMfPVr4uKUoQJtwA-120">
          <mxGeometry y="66" width="240" height="26" as="geometry" />
        </mxCell>
        <mxCell id="9vmZPMfPVr4uKUoQJtwA-123" value="- securityCode: String" style="text;strokeColor=none;fillColor=none;align=left;verticalAlign=top;spacingLeft=4;spacingRight=4;overflow=hidden;rotatable=0;points=[[0,0.5],[1,0.5]];portConstraint=eastwest;whiteSpace=wrap;html=1;fontFamily=Courier New;rounded=1;" vertex="1" parent="9vmZPMfPVr4uKUoQJtwA-120">
          <mxGeometry y="92" width="240" height="26" as="geometry" />
        </mxCell>
        <mxCell id="9vmZPMfPVr4uKUoQJtwA-124" style="edgeStyle=orthogonalEdgeStyle;rounded=1;orthogonalLoop=1;jettySize=auto;html=1;dashed=1;dashPattern=8 8;endArrow=block;endFill=1;" edge="1" parent="1" source="9vmZPMfPVr4uKUoQJtwA-126" target="9vmZPMfPVr4uKUoQJtwA-120">
          <mxGeometry relative="1" as="geometry">
            <Array as="points">
              <mxPoint x="3768" y="1868" />
              <mxPoint x="3768" y="1904" />
            </Array>
          </mxGeometry>
        </mxCell>
        <mxCell id="9vmZPMfPVr4uKUoQJtwA-125" value="&amp;lt;&amp;lt;implements&amp;gt;&amp;gt;" style="edgeLabel;html=1;align=center;verticalAlign=middle;resizable=0;points=[];rounded=1;fontFamily=Courier New;" vertex="1" connectable="0" parent="9vmZPMfPVr4uKUoQJtwA-124">
          <mxGeometry x="-0.1874" y="-1" relative="1" as="geometry">
            <mxPoint as="offset" />
          </mxGeometry>
        </mxCell>
        <mxCell id="9vmZPMfPVr4uKUoQJtwA-126" value="CreditCard" style="swimlane;fontStyle=0;childLayout=stackLayout;horizontal=1;startSize=26;fillColor=none;horizontalStack=0;resizeParent=1;resizeParentMax=0;resizeLast=0;collapsible=1;marginBottom=0;whiteSpace=wrap;html=1;fontFamily=Courier New;rounded=1;" vertex="1" parent="1">
          <mxGeometry x="3530" y="1854" width="140" height="52" as="geometry" />
        </mxCell>
        <mxCell id="9vmZPMfPVr4uKUoQJtwA-127" style="edgeStyle=orthogonalEdgeStyle;rounded=1;orthogonalLoop=1;jettySize=auto;html=1;dashed=1;dashPattern=8 8;endArrow=block;endFill=1;" edge="1" parent="1" source="9vmZPMfPVr4uKUoQJtwA-129" target="9vmZPMfPVr4uKUoQJtwA-120">
          <mxGeometry relative="1" as="geometry">
            <Array as="points">
              <mxPoint x="3790" y="1950" />
              <mxPoint x="3790" y="1950" />
            </Array>
          </mxGeometry>
        </mxCell>
        <mxCell id="9vmZPMfPVr4uKUoQJtwA-128" value="&amp;lt;&amp;lt;implements&amp;gt;&amp;gt;" style="edgeLabel;html=1;align=center;verticalAlign=middle;resizable=0;points=[];rounded=1;fontFamily=Courier New;" vertex="1" connectable="0" parent="9vmZPMfPVr4uKUoQJtwA-127">
          <mxGeometry x="0.2182" y="-2" relative="1" as="geometry">
            <mxPoint x="-21" y="-2" as="offset" />
          </mxGeometry>
        </mxCell>
        <mxCell id="9vmZPMfPVr4uKUoQJtwA-129" value="DebitCard" style="swimlane;fontStyle=0;childLayout=stackLayout;horizontal=1;startSize=26;fillColor=none;horizontalStack=0;resizeParent=1;resizeParentMax=0;resizeLast=0;collapsible=1;marginBottom=0;whiteSpace=wrap;html=1;fontFamily=Courier New;rounded=1;" vertex="1" parent="1">
          <mxGeometry x="3530" y="1924" width="140" height="52" as="geometry" />
        </mxCell>
        <mxCell id="9vmZPMfPVr4uKUoQJtwA-130" value="Each purchase made gives the customer more loyalty points. When the points of a level are surpassed, the membership level, the discount, and the associated benefits are updated." style="shape=note;strokeWidth=2;fontSize=10;size=20;whiteSpace=wrap;html=1;fillColor=#fff2cc;strokeColor=#d6b656;fontColor=#666600;rounded=1;fontFamily=Helvetica;" vertex="1" parent="1">
          <mxGeometry x="3310" y="1337" width="330" height="82" as="geometry" />
        </mxCell>
        <mxCell id="9vmZPMfPVr4uKUoQJtwA-240" style="edgeStyle=orthogonalEdgeStyle;rounded=0;orthogonalLoop=1;jettySize=auto;html=1;endArrow=open;endFill=0;" edge="1" parent="1" source="9vmZPMfPVr4uKUoQJtwA-131" target="9vmZPMfPVr4uKUoQJtwA-229">
          <mxGeometry relative="1" as="geometry">
            <Array as="points">
              <mxPoint x="960" y="672" />
            </Array>
          </mxGeometry>
        </mxCell>
        <mxCell id="9vmZPMfPVr4uKUoQJtwA-242" value="reviews" style="edgeLabel;html=1;align=center;verticalAlign=middle;resizable=0;points=[];" vertex="1" connectable="0" parent="9vmZPMfPVr4uKUoQJtwA-240">
          <mxGeometry x="-0.2124" y="1" relative="1" as="geometry">
            <mxPoint as="offset" />
          </mxGeometry>
        </mxCell>
        <mxCell id="9vmZPMfPVr4uKUoQJtwA-243" value="0...*" style="edgeLabel;html=1;align=center;verticalAlign=middle;resizable=0;points=[];" vertex="1" connectable="0" parent="9vmZPMfPVr4uKUoQJtwA-240">
          <mxGeometry x="0.6905" y="2" relative="1" as="geometry">
            <mxPoint as="offset" />
          </mxGeometry>
        </mxCell>
        <mxCell id="9vmZPMfPVr4uKUoQJtwA-131" value="&lt;i&gt;&amp;lt;&amp;lt;Abstract&amp;gt;&amp;gt;&lt;/i&gt;&lt;div&gt;&lt;i&gt;User&lt;/i&gt;&lt;/div&gt;" style="swimlane;fontStyle=0;childLayout=stackLayout;horizontal=1;startSize=40;fillColor=#f8cecc;horizontalStack=0;resizeParent=1;resizeParentMax=0;resizeLast=0;collapsible=1;marginBottom=0;whiteSpace=wrap;html=1;strokeColor=#b85450;rounded=1;fontFamily=Courier New;" vertex="1" parent="1">
          <mxGeometry x="780" y="280" width="240" height="144" as="geometry" />
        </mxCell>
        <mxCell id="9vmZPMfPVr4uKUoQJtwA-132" value="# username: String" style="text;strokeColor=none;fillColor=none;align=left;verticalAlign=top;spacingLeft=4;spacingRight=4;overflow=hidden;rotatable=0;points=[[0,0.5],[1,0.5]];portConstraint=eastwest;whiteSpace=wrap;html=1;rounded=1;fontFamily=Courier New;" vertex="1" parent="9vmZPMfPVr4uKUoQJtwA-131">
          <mxGeometry y="40" width="240" height="26" as="geometry" />
        </mxCell>
        <mxCell id="9vmZPMfPVr4uKUoQJtwA-133" value="# password: String" style="text;strokeColor=none;fillColor=none;align=left;verticalAlign=top;spacingLeft=4;spacingRight=4;overflow=hidden;rotatable=0;points=[[0,0.5],[1,0.5]];portConstraint=eastwest;whiteSpace=wrap;html=1;rounded=1;fontFamily=Courier New;" vertex="1" parent="9vmZPMfPVr4uKUoQJtwA-131">
          <mxGeometry y="66" width="240" height="26" as="geometry" />
        </mxCell>
        <mxCell id="9vmZPMfPVr4uKUoQJtwA-134" value="# nombre: String" style="text;strokeColor=none;fillColor=none;align=left;verticalAlign=top;spacingLeft=4;spacingRight=4;overflow=hidden;rotatable=0;points=[[0,0.5],[1,0.5]];portConstraint=eastwest;whiteSpace=wrap;html=1;rounded=1;fontFamily=Courier New;" vertex="1" parent="9vmZPMfPVr4uKUoQJtwA-131">
          <mxGeometry y="92" width="240" height="26" as="geometry" />
        </mxCell>
        <mxCell id="9vmZPMfPVr4uKUoQJtwA-136" value="# email: String" style="text;strokeColor=none;fillColor=none;align=left;verticalAlign=top;spacingLeft=4;spacingRight=4;overflow=hidden;rotatable=0;points=[[0,0.5],[1,0.5]];portConstraint=eastwest;whiteSpace=wrap;html=1;rounded=1;fontFamily=Courier New;" vertex="1" parent="9vmZPMfPVr4uKUoQJtwA-131">
          <mxGeometry y="118" width="240" height="26" as="geometry" />
        </mxCell>
        <mxCell id="9vmZPMfPVr4uKUoQJtwA-138" style="edgeStyle=orthogonalEdgeStyle;rounded=0;orthogonalLoop=1;jettySize=auto;html=1;endArrow=block;endFill=0;" edge="1" parent="1" source="9vmZPMfPVr4uKUoQJtwA-137" target="9vmZPMfPVr4uKUoQJtwA-131">
          <mxGeometry relative="1" as="geometry">
            <Array as="points">
              <mxPoint x="445" y="530" />
              <mxPoint x="830" y="530" />
            </Array>
          </mxGeometry>
        </mxCell>
        <mxCell id="9vmZPMfPVr4uKUoQJtwA-178" style="edgeStyle=orthogonalEdgeStyle;rounded=0;orthogonalLoop=1;jettySize=auto;html=1;endArrow=open;endFill=0;" edge="1" parent="1" source="9vmZPMfPVr4uKUoQJtwA-137" target="9vmZPMfPVr4uKUoQJtwA-146">
          <mxGeometry relative="1" as="geometry">
            <Array as="points">
              <mxPoint x="520" y="780" />
              <mxPoint x="520" y="780" />
            </Array>
          </mxGeometry>
        </mxCell>
        <mxCell id="9vmZPMfPVr4uKUoQJtwA-179" value="0 ... *" style="edgeLabel;html=1;align=center;verticalAlign=middle;resizable=0;points=[];" vertex="1" connectable="0" parent="9vmZPMfPVr4uKUoQJtwA-178">
          <mxGeometry x="-0.0663" y="1" relative="1" as="geometry">
            <mxPoint y="39" as="offset" />
          </mxGeometry>
        </mxCell>
        <mxCell id="9vmZPMfPVr4uKUoQJtwA-180" value="progresses" style="edgeLabel;html=1;align=center;verticalAlign=middle;resizable=0;points=[];" vertex="1" connectable="0" parent="9vmZPMfPVr4uKUoQJtwA-178">
          <mxGeometry x="-0.2515" y="2" relative="1" as="geometry">
            <mxPoint as="offset" />
          </mxGeometry>
        </mxCell>
        <mxCell id="9vmZPMfPVr4uKUoQJtwA-196" style="edgeStyle=orthogonalEdgeStyle;rounded=0;orthogonalLoop=1;jettySize=auto;html=1;endArrow=open;endFill=0;" edge="1" parent="1" source="9vmZPMfPVr4uKUoQJtwA-137" target="9vmZPMfPVr4uKUoQJtwA-189">
          <mxGeometry relative="1" as="geometry">
            <Array as="points">
              <mxPoint x="30" y="660" />
              <mxPoint x="30" y="1209" />
            </Array>
          </mxGeometry>
        </mxCell>
        <mxCell id="9vmZPMfPVr4uKUoQJtwA-197" value="attempts" style="edgeLabel;html=1;align=center;verticalAlign=middle;resizable=0;points=[];" vertex="1" connectable="0" parent="9vmZPMfPVr4uKUoQJtwA-196">
          <mxGeometry x="-0.6767" y="4" relative="1" as="geometry">
            <mxPoint y="-4" as="offset" />
          </mxGeometry>
        </mxCell>
        <mxCell id="9vmZPMfPVr4uKUoQJtwA-198" value="0 ... *" style="edgeLabel;html=1;align=center;verticalAlign=middle;resizable=0;points=[];" vertex="1" connectable="0" parent="9vmZPMfPVr4uKUoQJtwA-196">
          <mxGeometry x="0.7271" y="-3" relative="1" as="geometry">
            <mxPoint as="offset" />
          </mxGeometry>
        </mxCell>
        <mxCell id="9vmZPMfPVr4uKUoQJtwA-137" value="Student" style="swimlane;fontStyle=0;childLayout=stackLayout;horizontal=1;startSize=17;fillColor=none;horizontalStack=0;resizeParent=1;resizeParentMax=0;resizeLast=0;collapsible=1;marginBottom=0;whiteSpace=wrap;html=1;fontFamily=Courier New;rounded=1;" vertex="1" parent="1">
          <mxGeometry x="280" y="630" width="330" height="60" as="geometry" />
        </mxCell>
        <mxCell id="9vmZPMfPVr4uKUoQJtwA-174" style="edgeStyle=orthogonalEdgeStyle;rounded=0;orthogonalLoop=1;jettySize=auto;html=1;endArrow=open;endFill=0;" edge="1" parent="1" source="9vmZPMfPVr4uKUoQJtwA-146">
          <mxGeometry relative="1" as="geometry">
            <mxPoint x="620.0000000000002" y="970.0000000000002" as="sourcePoint" />
            <mxPoint x="764.9999999999998" y="851.0344827586207" as="targetPoint" />
            <Array as="points">
              <mxPoint x="715" y="970" />
              <mxPoint x="715" y="851" />
            </Array>
          </mxGeometry>
        </mxCell>
        <mxCell id="9vmZPMfPVr4uKUoQJtwA-175" value="learningPath" style="edgeLabel;html=1;align=center;verticalAlign=middle;resizable=0;points=[];" vertex="1" connectable="0" parent="9vmZPMfPVr4uKUoQJtwA-174">
          <mxGeometry x="-0.2378" relative="1" as="geometry">
            <mxPoint x="-10" y="-54" as="offset" />
          </mxGeometry>
        </mxCell>
        <mxCell id="9vmZPMfPVr4uKUoQJtwA-233" value="1" style="edgeLabel;html=1;align=center;verticalAlign=middle;resizable=0;points=[];" vertex="1" connectable="0" parent="9vmZPMfPVr4uKUoQJtwA-174">
          <mxGeometry x="0.7327" y="-1" relative="1" as="geometry">
            <mxPoint as="offset" />
          </mxGeometry>
        </mxCell>
        <mxCell id="9vmZPMfPVr4uKUoQJtwA-176" style="edgeStyle=orthogonalEdgeStyle;rounded=0;orthogonalLoop=1;jettySize=auto;html=1;endArrow=open;endFill=0;" edge="1" parent="1" source="9vmZPMfPVr4uKUoQJtwA-146" target="9vmZPMfPVr4uKUoQJtwA-137">
          <mxGeometry relative="1" as="geometry">
            <Array as="points">
              <mxPoint x="400" y="770" />
              <mxPoint x="400" y="770" />
            </Array>
          </mxGeometry>
        </mxCell>
        <mxCell id="9vmZPMfPVr4uKUoQJtwA-177" value="1" style="edgeLabel;html=1;align=center;verticalAlign=middle;resizable=0;points=[];" vertex="1" connectable="0" parent="9vmZPMfPVr4uKUoQJtwA-176">
          <mxGeometry x="0.7388" y="2" relative="1" as="geometry">
            <mxPoint as="offset" />
          </mxGeometry>
        </mxCell>
        <mxCell id="9vmZPMfPVr4uKUoQJtwA-202" style="edgeStyle=orthogonalEdgeStyle;rounded=0;orthogonalLoop=1;jettySize=auto;html=1;" edge="1" parent="1" source="9vmZPMfPVr4uKUoQJtwA-146" target="9vmZPMfPVr4uKUoQJtwA-189">
          <mxGeometry relative="1" as="geometry" />
        </mxCell>
        <mxCell id="9vmZPMfPVr4uKUoQJtwA-203" value="attempts" style="edgeLabel;html=1;align=center;verticalAlign=middle;resizable=0;points=[];" vertex="1" connectable="0" parent="9vmZPMfPVr4uKUoQJtwA-202">
          <mxGeometry x="0.0859" y="1" relative="1" as="geometry">
            <mxPoint x="-1" y="-9" as="offset" />
          </mxGeometry>
        </mxCell>
        <mxCell id="9vmZPMfPVr4uKUoQJtwA-204" value="0...*" style="edgeLabel;html=1;align=center;verticalAlign=middle;resizable=0;points=[];" vertex="1" connectable="0" parent="9vmZPMfPVr4uKUoQJtwA-202">
          <mxGeometry x="0.2659" relative="1" as="geometry">
            <mxPoint y="3" as="offset" />
          </mxGeometry>
        </mxCell>
        <mxCell id="9vmZPMfPVr4uKUoQJtwA-146" value="LearningProgress" style="swimlane;fontStyle=0;childLayout=stackLayout;horizontal=1;startSize=26;fillColor=none;horizontalStack=0;resizeParent=1;resizeParentMax=0;resizeLast=0;collapsible=1;marginBottom=0;whiteSpace=wrap;html=1;fontFamily=Courier New;rounded=1;" vertex="1" parent="1">
          <mxGeometry x="285" y="852" width="320" height="182" as="geometry" />
        </mxCell>
        <mxCell id="9vmZPMfPVr4uKUoQJtwA-149" value="- completionPercentage: double" style="text;strokeColor=none;fillColor=none;align=left;verticalAlign=top;spacingLeft=4;spacingRight=4;overflow=hidden;rotatable=0;points=[[0,0.5],[1,0.5]];portConstraint=eastwest;whiteSpace=wrap;html=1;fontFamily=Courier New;rounded=1;" vertex="1" parent="9vmZPMfPVr4uKUoQJtwA-146">
          <mxGeometry y="26" width="320" height="26" as="geometry" />
        </mxCell>
        <mxCell id="9vmZPMfPVr4uKUoQJtwA-150" value="- initDate: Date" style="text;strokeColor=none;fillColor=none;align=left;verticalAlign=top;spacingLeft=4;spacingRight=4;overflow=hidden;rotatable=0;points=[[0,0.5],[1,0.5]];portConstraint=eastwest;whiteSpace=wrap;html=1;fontFamily=Courier New;rounded=1;" vertex="1" parent="9vmZPMfPVr4uKUoQJtwA-146">
          <mxGeometry y="52" width="320" height="26" as="geometry" />
        </mxCell>
        <mxCell id="9vmZPMfPVr4uKUoQJtwA-151" value="- endDate: Date" style="text;strokeColor=none;fillColor=none;align=left;verticalAlign=top;spacingLeft=4;spacingRight=4;overflow=hidden;rotatable=0;points=[[0,0.5],[1,0.5]];portConstraint=eastwest;whiteSpace=wrap;html=1;fontFamily=Courier New;rounded=1;" vertex="1" parent="9vmZPMfPVr4uKUoQJtwA-146">
          <mxGeometry y="78" width="320" height="26" as="geometry" />
        </mxCell>
        <mxCell id="9vmZPMfPVr4uKUoQJtwA-153" value="- timeActivities: Map&amp;lt;String, int&amp;gt;&lt;div&gt;&lt;div&gt;&lt;br&gt;&lt;/div&gt;&lt;/div&gt;" style="text;strokeColor=none;fillColor=none;align=left;verticalAlign=top;spacingLeft=4;spacingRight=4;overflow=hidden;rotatable=0;points=[[0,0.5],[1,0.5]];portConstraint=eastwest;whiteSpace=wrap;html=1;fontFamily=Courier New;rounded=1;" vertex="1" parent="9vmZPMfPVr4uKUoQJtwA-146">
          <mxGeometry y="104" width="320" height="26" as="geometry" />
        </mxCell>
        <mxCell id="9vmZPMfPVr4uKUoQJtwA-154" value="- successRate: Map&amp;lt;String, float&amp;gt;&lt;div&gt;&lt;div&gt;&lt;br&gt;&lt;/div&gt;&lt;/div&gt;" style="text;strokeColor=none;fillColor=none;align=left;verticalAlign=top;spacingLeft=4;spacingRight=4;overflow=hidden;rotatable=0;points=[[0,0.5],[1,0.5]];portConstraint=eastwest;whiteSpace=wrap;html=1;fontFamily=Courier New;rounded=1;" vertex="1" parent="9vmZPMfPVr4uKUoQJtwA-146">
          <mxGeometry y="130" width="320" height="26" as="geometry" />
        </mxCell>
        <mxCell id="9vmZPMfPVr4uKUoQJtwA-155" value="- dateCompletions: Map&amp;lt;String, Date&amp;gt;&lt;div&gt;&lt;div&gt;&lt;br&gt;&lt;/div&gt;&lt;/div&gt;" style="text;strokeColor=none;fillColor=none;align=left;verticalAlign=top;spacingLeft=4;spacingRight=4;overflow=hidden;rotatable=0;points=[[0,0.5],[1,0.5]];portConstraint=eastwest;whiteSpace=wrap;html=1;fontFamily=Courier New;rounded=1;" vertex="1" parent="9vmZPMfPVr4uKUoQJtwA-146">
          <mxGeometry y="156" width="320" height="26" as="geometry" />
        </mxCell>
        <mxCell id="9vmZPMfPVr4uKUoQJtwA-182" style="edgeStyle=orthogonalEdgeStyle;rounded=0;orthogonalLoop=1;jettySize=auto;html=1;endArrow=open;endFill=0;" edge="1" parent="1" source="9vmZPMfPVr4uKUoQJtwA-160" target="9vmZPMfPVr4uKUoQJtwA-168">
          <mxGeometry relative="1" as="geometry" />
        </mxCell>
        <mxCell id="9vmZPMfPVr4uKUoQJtwA-228" value="metadata" style="edgeLabel;html=1;align=center;verticalAlign=middle;resizable=0;points=[];" vertex="1" connectable="0" parent="9vmZPMfPVr4uKUoQJtwA-182">
          <mxGeometry x="-0.125" relative="1" as="geometry">
            <mxPoint as="offset" />
          </mxGeometry>
        </mxCell>
        <mxCell id="9vmZPMfPVr4uKUoQJtwA-234" style="edgeStyle=orthogonalEdgeStyle;rounded=0;orthogonalLoop=1;jettySize=auto;html=1;" edge="1" parent="1" source="9vmZPMfPVr4uKUoQJtwA-160" target="9vmZPMfPVr4uKUoQJtwA-146">
          <mxGeometry relative="1" as="geometry">
            <Array as="points">
              <mxPoint x="650" y="810" />
              <mxPoint x="650" y="943" />
            </Array>
          </mxGeometry>
        </mxCell>
        <mxCell id="9vmZPMfPVr4uKUoQJtwA-235" value="progresses" style="edgeLabel;html=1;align=center;verticalAlign=middle;resizable=0;points=[];" vertex="1" connectable="0" parent="9vmZPMfPVr4uKUoQJtwA-234">
          <mxGeometry x="-0.3885" relative="1" as="geometry">
            <mxPoint as="offset" />
          </mxGeometry>
        </mxCell>
        <mxCell id="9vmZPMfPVr4uKUoQJtwA-236" value="0 ... *" style="edgeLabel;html=1;align=center;verticalAlign=middle;resizable=0;points=[];" vertex="1" connectable="0" parent="9vmZPMfPVr4uKUoQJtwA-234">
          <mxGeometry x="0.2258" relative="1" as="geometry">
            <mxPoint as="offset" />
          </mxGeometry>
        </mxCell>
        <mxCell id="9vmZPMfPVr4uKUoQJtwA-238" style="edgeStyle=orthogonalEdgeStyle;rounded=0;orthogonalLoop=1;jettySize=auto;html=1;endArrow=open;endFill=0;" edge="1" parent="1" source="9vmZPMfPVr4uKUoQJtwA-160" target="9vmZPMfPVr4uKUoQJtwA-185">
          <mxGeometry relative="1" as="geometry">
            <Array as="points">
              <mxPoint x="980" y="1030" />
              <mxPoint x="980" y="1030" />
            </Array>
          </mxGeometry>
        </mxCell>
        <mxCell id="9vmZPMfPVr4uKUoQJtwA-248" style="edgeStyle=orthogonalEdgeStyle;rounded=0;orthogonalLoop=1;jettySize=auto;html=1;endArrow=open;endFill=0;" edge="1" parent="1" source="9vmZPMfPVr4uKUoQJtwA-160" target="9vmZPMfPVr4uKUoQJtwA-229">
          <mxGeometry relative="1" as="geometry">
            <Array as="points">
              <mxPoint x="1180" y="810" />
            </Array>
          </mxGeometry>
        </mxCell>
        <mxCell id="9vmZPMfPVr4uKUoQJtwA-249" value="reviews" style="edgeLabel;html=1;align=center;verticalAlign=middle;resizable=0;points=[];" vertex="1" connectable="0" parent="9vmZPMfPVr4uKUoQJtwA-248">
          <mxGeometry x="-0.5153" relative="1" as="geometry">
            <mxPoint as="offset" />
          </mxGeometry>
        </mxCell>
        <mxCell id="9vmZPMfPVr4uKUoQJtwA-250" value="0 ... *" style="edgeLabel;html=1;align=center;verticalAlign=middle;resizable=0;points=[];" vertex="1" connectable="0" parent="9vmZPMfPVr4uKUoQJtwA-248">
          <mxGeometry x="0.6463" y="3" relative="1" as="geometry">
            <mxPoint as="offset" />
          </mxGeometry>
        </mxCell>
        <mxCell id="9vmZPMfPVr4uKUoQJtwA-160" value="LearningPath" style="swimlane;fontStyle=0;childLayout=stackLayout;horizontal=1;startSize=26;fillColor=none;horizontalStack=0;resizeParent=1;resizeParentMax=0;resizeLast=0;collapsible=1;marginBottom=0;whiteSpace=wrap;html=1;fontFamily=Courier New;rounded=1;" vertex="1" parent="1">
          <mxGeometry x="750" y="740" width="320" height="182" as="geometry" />
        </mxCell>
        <mxCell id="9vmZPMfPVr4uKUoQJtwA-161" value="- title: String" style="text;strokeColor=none;fillColor=none;align=left;verticalAlign=top;spacingLeft=4;spacingRight=4;overflow=hidden;rotatable=0;points=[[0,0.5],[1,0.5]];portConstraint=eastwest;whiteSpace=wrap;html=1;fontFamily=Courier New;rounded=1;" vertex="1" parent="9vmZPMfPVr4uKUoQJtwA-160">
          <mxGeometry y="26" width="320" height="26" as="geometry" />
        </mxCell>
        <mxCell id="9vmZPMfPVr4uKUoQJtwA-162" value="- description: String" style="text;strokeColor=none;fillColor=none;align=left;verticalAlign=top;spacingLeft=4;spacingRight=4;overflow=hidden;rotatable=0;points=[[0,0.5],[1,0.5]];portConstraint=eastwest;whiteSpace=wrap;html=1;fontFamily=Courier New;rounded=1;" vertex="1" parent="9vmZPMfPVr4uKUoQJtwA-160">
          <mxGeometry y="52" width="320" height="26" as="geometry" />
        </mxCell>
        <mxCell id="9vmZPMfPVr4uKUoQJtwA-163" value="- objectives: String" style="text;strokeColor=none;fillColor=none;align=left;verticalAlign=top;spacingLeft=4;spacingRight=4;overflow=hidden;rotatable=0;points=[[0,0.5],[1,0.5]];portConstraint=eastwest;whiteSpace=wrap;html=1;fontFamily=Courier New;rounded=1;" vertex="1" parent="9vmZPMfPVr4uKUoQJtwA-160">
          <mxGeometry y="78" width="320" height="26" as="geometry" />
        </mxCell>
        <mxCell id="9vmZPMfPVr4uKUoQJtwA-164" value="- difficultyLevel: String&lt;div&gt;&lt;br&gt;&lt;/div&gt;" style="text;strokeColor=none;fillColor=none;align=left;verticalAlign=top;spacingLeft=4;spacingRight=4;overflow=hidden;rotatable=0;points=[[0,0.5],[1,0.5]];portConstraint=eastwest;whiteSpace=wrap;html=1;fontFamily=Courier New;rounded=1;" vertex="1" parent="9vmZPMfPVr4uKUoQJtwA-160">
          <mxGeometry y="104" width="320" height="26" as="geometry" />
        </mxCell>
        <mxCell id="9vmZPMfPVr4uKUoQJtwA-165" value="- duration: int&lt;div&gt;&lt;div&gt;&lt;br&gt;&lt;/div&gt;&lt;/div&gt;" style="text;strokeColor=none;fillColor=none;align=left;verticalAlign=top;spacingLeft=4;spacingRight=4;overflow=hidden;rotatable=0;points=[[0,0.5],[1,0.5]];portConstraint=eastwest;whiteSpace=wrap;html=1;fontFamily=Courier New;rounded=1;" vertex="1" parent="9vmZPMfPVr4uKUoQJtwA-160">
          <mxGeometry y="130" width="320" height="26" as="geometry" />
        </mxCell>
        <mxCell id="9vmZPMfPVr4uKUoQJtwA-166" value="- rating: double&amp;nbsp;&lt;div&gt;&lt;div&gt;&lt;br&gt;&lt;/div&gt;&lt;/div&gt;" style="text;strokeColor=none;fillColor=none;align=left;verticalAlign=top;spacingLeft=4;spacingRight=4;overflow=hidden;rotatable=0;points=[[0,0.5],[1,0.5]];portConstraint=eastwest;whiteSpace=wrap;html=1;fontFamily=Courier New;rounded=1;" vertex="1" parent="9vmZPMfPVr4uKUoQJtwA-160">
          <mxGeometry y="156" width="320" height="26" as="geometry" />
        </mxCell>
        <mxCell id="9vmZPMfPVr4uKUoQJtwA-168" value="Metadata" style="swimlane;fontStyle=0;childLayout=stackLayout;horizontal=1;startSize=26;fillColor=none;horizontalStack=0;resizeParent=1;resizeParentMax=0;resizeLast=0;collapsible=1;marginBottom=0;whiteSpace=wrap;html=1;fontFamily=Courier New;rounded=1;" vertex="1" parent="1">
          <mxGeometry x="630" y="1006" width="270" height="104" as="geometry" />
        </mxCell>
        <mxCell id="9vmZPMfPVr4uKUoQJtwA-169" value="- modificationDate: Date" style="text;strokeColor=none;fillColor=none;align=left;verticalAlign=top;spacingLeft=4;spacingRight=4;overflow=hidden;rotatable=0;points=[[0,0.5],[1,0.5]];portConstraint=eastwest;whiteSpace=wrap;html=1;fontFamily=Courier New;rounded=1;" vertex="1" parent="9vmZPMfPVr4uKUoQJtwA-168">
          <mxGeometry y="26" width="270" height="26" as="geometry" />
        </mxCell>
        <mxCell id="9vmZPMfPVr4uKUoQJtwA-170" value="- creationDate: Date" style="text;strokeColor=none;fillColor=none;align=left;verticalAlign=top;spacingLeft=4;spacingRight=4;overflow=hidden;rotatable=0;points=[[0,0.5],[1,0.5]];portConstraint=eastwest;whiteSpace=wrap;html=1;fontFamily=Courier New;rounded=1;" vertex="1" parent="9vmZPMfPVr4uKUoQJtwA-168">
          <mxGeometry y="52" width="270" height="26" as="geometry" />
        </mxCell>
        <mxCell id="9vmZPMfPVr4uKUoQJtwA-171" value="- version: String" style="text;strokeColor=none;fillColor=none;align=left;verticalAlign=top;spacingLeft=4;spacingRight=4;overflow=hidden;rotatable=0;points=[[0,0.5],[1,0.5]];portConstraint=eastwest;whiteSpace=wrap;html=1;fontFamily=Courier New;rounded=1;" vertex="1" parent="9vmZPMfPVr4uKUoQJtwA-168">
          <mxGeometry y="78" width="270" height="26" as="geometry" />
        </mxCell>
        <mxCell id="9vmZPMfPVr4uKUoQJtwA-173" value="student" style="edgeLabel;html=1;align=center;verticalAlign=middle;resizable=0;points=[];" vertex="1" connectable="0" parent="1">
          <mxGeometry x="430.0000000000002" y="780" as="geometry" />
        </mxCell>
        <mxCell id="9vmZPMfPVr4uKUoQJtwA-183" value="Each map have a String as the identifier of an activitie&amp;nbsp;" style="shape=note;strokeWidth=2;fontSize=10;size=25;whiteSpace=wrap;html=1;fillColor=#fff2cc;strokeColor=#d6b656;fontColor=#666600;rounded=1;fontFamily=Helvetica;" vertex="1" parent="1">
          <mxGeometry x="110" y="880" width="150" height="103" as="geometry" />
        </mxCell>
        <mxCell id="9vmZPMfPVr4uKUoQJtwA-211" style="edgeStyle=orthogonalEdgeStyle;rounded=0;orthogonalLoop=1;jettySize=auto;html=1;endArrow=open;endFill=0;" edge="1" parent="1" source="9vmZPMfPVr4uKUoQJtwA-185" target="9vmZPMfPVr4uKUoQJtwA-189">
          <mxGeometry relative="1" as="geometry">
            <Array as="points">
              <mxPoint x="740" y="1230" />
              <mxPoint x="740" y="1230" />
            </Array>
          </mxGeometry>
        </mxCell>
        <mxCell id="9vmZPMfPVr4uKUoQJtwA-212" value="attempts" style="edgeLabel;html=1;align=center;verticalAlign=middle;resizable=0;points=[];" vertex="1" connectable="0" parent="9vmZPMfPVr4uKUoQJtwA-211">
          <mxGeometry x="0.2291" relative="1" as="geometry">
            <mxPoint x="-11" y="-1" as="offset" />
          </mxGeometry>
        </mxCell>
        <mxCell id="9vmZPMfPVr4uKUoQJtwA-213" value="0 ... *" style="edgeLabel;html=1;align=center;verticalAlign=middle;resizable=0;points=[];" vertex="1" connectable="0" parent="9vmZPMfPVr4uKUoQJtwA-211">
          <mxGeometry x="-0.485" y="1" relative="1" as="geometry">
            <mxPoint as="offset" />
          </mxGeometry>
        </mxCell>
        <mxCell id="9vmZPMfPVr4uKUoQJtwA-239" style="edgeStyle=orthogonalEdgeStyle;rounded=0;orthogonalLoop=1;jettySize=auto;html=1;endArrow=open;endFill=0;" edge="1" parent="1" source="9vmZPMfPVr4uKUoQJtwA-185" target="9vmZPMfPVr4uKUoQJtwA-160">
          <mxGeometry relative="1" as="geometry">
            <Array as="points">
              <mxPoint x="1050" y="1060" />
              <mxPoint x="1050" y="1060" />
            </Array>
          </mxGeometry>
        </mxCell>
        <mxCell id="9vmZPMfPVr4uKUoQJtwA-251" style="edgeStyle=orthogonalEdgeStyle;rounded=0;orthogonalLoop=1;jettySize=auto;html=1;endArrow=open;endFill=0;" edge="1" parent="1" source="9vmZPMfPVr4uKUoQJtwA-185" target="9vmZPMfPVr4uKUoQJtwA-229">
          <mxGeometry relative="1" as="geometry">
            <Array as="points">
              <mxPoint x="1090" y="1060" />
              <mxPoint x="1240" y="1060" />
            </Array>
          </mxGeometry>
        </mxCell>
        <mxCell id="9vmZPMfPVr4uKUoQJtwA-252" value="reviews" style="edgeLabel;html=1;align=center;verticalAlign=middle;resizable=0;points=[];" vertex="1" connectable="0" parent="9vmZPMfPVr4uKUoQJtwA-251">
          <mxGeometry x="-0.5409" y="4" relative="1" as="geometry">
            <mxPoint as="offset" />
          </mxGeometry>
        </mxCell>
        <mxCell id="9vmZPMfPVr4uKUoQJtwA-253" value="0 ... *" style="edgeLabel;html=1;align=center;verticalAlign=middle;resizable=0;points=[];" vertex="1" connectable="0" parent="9vmZPMfPVr4uKUoQJtwA-251">
          <mxGeometry x="0.6005" y="-1" relative="1" as="geometry">
            <mxPoint as="offset" />
          </mxGeometry>
        </mxCell>
        <mxCell id="9vmZPMfPVr4uKUoQJtwA-185" value="&lt;i&gt;&amp;lt;&amp;lt;Abstract&amp;gt;&amp;gt;&lt;/i&gt;&lt;div&gt;&lt;i&gt;Activity&lt;/i&gt;&lt;/div&gt;" style="swimlane;fontStyle=0;childLayout=stackLayout;horizontal=1;startSize=40;fillColor=#f8cecc;horizontalStack=0;resizeParent=1;resizeParentMax=0;resizeLast=0;collapsible=1;marginBottom=0;whiteSpace=wrap;html=1;strokeColor=#b85450;rounded=1;fontFamily=Courier New;" vertex="1" parent="1">
          <mxGeometry x="880" y="1136" width="240" height="274" as="geometry" />
        </mxCell>
        <mxCell id="9vmZPMfPVr4uKUoQJtwA-186" value="# description: String" style="text;strokeColor=none;fillColor=none;align=left;verticalAlign=top;spacingLeft=4;spacingRight=4;overflow=hidden;rotatable=0;points=[[0,0.5],[1,0.5]];portConstraint=eastwest;whiteSpace=wrap;html=1;rounded=1;fontFamily=Courier New;" vertex="1" parent="9vmZPMfPVr4uKUoQJtwA-185">
          <mxGeometry y="40" width="240" height="26" as="geometry" />
        </mxCell>
        <mxCell id="9vmZPMfPVr4uKUoQJtwA-187" value="# objective: String" style="text;strokeColor=none;fillColor=none;align=left;verticalAlign=top;spacingLeft=4;spacingRight=4;overflow=hidden;rotatable=0;points=[[0,0.5],[1,0.5]];portConstraint=eastwest;whiteSpace=wrap;html=1;rounded=1;fontFamily=Courier New;" vertex="1" parent="9vmZPMfPVr4uKUoQJtwA-185">
          <mxGeometry y="66" width="240" height="26" as="geometry" />
        </mxCell>
        <mxCell id="9vmZPMfPVr4uKUoQJtwA-188" value="# difficultyLevel: String" style="text;strokeColor=none;fillColor=none;align=left;verticalAlign=top;spacingLeft=4;spacingRight=4;overflow=hidden;rotatable=0;points=[[0,0.5],[1,0.5]];portConstraint=eastwest;whiteSpace=wrap;html=1;rounded=1;fontFamily=Courier New;" vertex="1" parent="9vmZPMfPVr4uKUoQJtwA-185">
          <mxGeometry y="92" width="240" height="26" as="geometry" />
        </mxCell>
        <mxCell id="9vmZPMfPVr4uKUoQJtwA-214" value="# expectedDuration: int" style="text;strokeColor=none;fillColor=none;align=left;verticalAlign=top;spacingLeft=4;spacingRight=4;overflow=hidden;rotatable=0;points=[[0,0.5],[1,0.5]];portConstraint=eastwest;whiteSpace=wrap;html=1;rounded=1;fontFamily=Courier New;" vertex="1" parent="9vmZPMfPVr4uKUoQJtwA-185">
          <mxGeometry y="118" width="240" height="26" as="geometry" />
        </mxCell>
        <mxCell id="9vmZPMfPVr4uKUoQJtwA-215" value="# expectedDuration: int" style="text;strokeColor=none;fillColor=none;align=left;verticalAlign=top;spacingLeft=4;spacingRight=4;overflow=hidden;rotatable=0;points=[[0,0.5],[1,0.5]];portConstraint=eastwest;whiteSpace=wrap;html=1;rounded=1;fontFamily=Courier New;" vertex="1" parent="9vmZPMfPVr4uKUoQJtwA-185">
          <mxGeometry y="144" width="240" height="26" as="geometry" />
        </mxCell>
        <mxCell id="9vmZPMfPVr4uKUoQJtwA-216" style="edgeStyle=orthogonalEdgeStyle;rounded=0;orthogonalLoop=1;jettySize=auto;html=1;entryX=0.995;entryY=-0.09;entryDx=0;entryDy=0;entryPerimeter=0;endArrow=open;endFill=0;" edge="1" parent="9vmZPMfPVr4uKUoQJtwA-185" source="9vmZPMfPVr4uKUoQJtwA-185" target="9vmZPMfPVr4uKUoQJtwA-188">
          <mxGeometry relative="1" as="geometry">
            <Array as="points">
              <mxPoint x="430" y="144" />
              <mxPoint x="430" y="90" />
            </Array>
          </mxGeometry>
        </mxCell>
        <mxCell id="9vmZPMfPVr4uKUoQJtwA-217" value="previousActivities" style="edgeLabel;html=1;align=center;verticalAlign=middle;resizable=0;points=[];" vertex="1" connectable="0" parent="9vmZPMfPVr4uKUoQJtwA-216">
          <mxGeometry x="-0.5709" relative="1" as="geometry">
            <mxPoint x="13" y="4" as="offset" />
          </mxGeometry>
        </mxCell>
        <mxCell id="9vmZPMfPVr4uKUoQJtwA-219" value="0...*" style="edgeLabel;html=1;align=center;verticalAlign=middle;resizable=0;points=[];" vertex="1" connectable="0" parent="9vmZPMfPVr4uKUoQJtwA-216">
          <mxGeometry x="0.5855" y="1" relative="1" as="geometry">
            <mxPoint x="17" as="offset" />
          </mxGeometry>
        </mxCell>
        <mxCell id="9vmZPMfPVr4uKUoQJtwA-220" style="edgeStyle=orthogonalEdgeStyle;rounded=0;orthogonalLoop=1;jettySize=auto;html=1;entryX=1.001;entryY=1.022;entryDx=0;entryDy=0;entryPerimeter=0;exitX=1.002;exitY=0.103;exitDx=0;exitDy=0;exitPerimeter=0;endArrow=open;endFill=0;" edge="1" parent="9vmZPMfPVr4uKUoQJtwA-185" source="9vmZPMfPVr4uKUoQJtwA-185" target="9vmZPMfPVr4uKUoQJtwA-186">
          <mxGeometry relative="1" as="geometry">
            <mxPoint x="240" y="34" as="sourcePoint" />
            <mxPoint x="240" y="54" as="targetPoint" />
            <Array as="points">
              <mxPoint x="430" y="17" />
              <mxPoint x="430" y="67" />
            </Array>
          </mxGeometry>
        </mxCell>
        <mxCell id="9vmZPMfPVr4uKUoQJtwA-221" value="0...*" style="edgeLabel;html=1;align=center;verticalAlign=middle;resizable=0;points=[];" vertex="1" connectable="0" parent="9vmZPMfPVr4uKUoQJtwA-220">
          <mxGeometry x="0.5436" y="2" relative="1" as="geometry">
            <mxPoint as="offset" />
          </mxGeometry>
        </mxCell>
        <mxCell id="9vmZPMfPVr4uKUoQJtwA-222" value="followingActivities" style="edgeLabel;html=1;align=center;verticalAlign=middle;resizable=0;points=[];" vertex="1" connectable="0" parent="9vmZPMfPVr4uKUoQJtwA-220">
          <mxGeometry x="-0.5307" y="-1" relative="1" as="geometry">
            <mxPoint as="offset" />
          </mxGeometry>
        </mxCell>
        <mxCell id="9vmZPMfPVr4uKUoQJtwA-223" value="# limitDate: Date" style="text;strokeColor=none;fillColor=none;align=left;verticalAlign=top;spacingLeft=4;spacingRight=4;overflow=hidden;rotatable=0;points=[[0,0.5],[1,0.5]];portConstraint=eastwest;whiteSpace=wrap;html=1;rounded=1;fontFamily=Courier New;" vertex="1" parent="9vmZPMfPVr4uKUoQJtwA-185">
          <mxGeometry y="170" width="240" height="26" as="geometry" />
        </mxCell>
        <mxCell id="9vmZPMfPVr4uKUoQJtwA-224" value="# result: String" style="text;strokeColor=none;fillColor=none;align=left;verticalAlign=top;spacingLeft=4;spacingRight=4;overflow=hidden;rotatable=0;points=[[0,0.5],[1,0.5]];portConstraint=eastwest;whiteSpace=wrap;html=1;rounded=1;fontFamily=Courier New;" vertex="1" parent="9vmZPMfPVr4uKUoQJtwA-185">
          <mxGeometry y="196" width="240" height="26" as="geometry" />
        </mxCell>
        <mxCell id="9vmZPMfPVr4uKUoQJtwA-225" value="# mandatory: boolean" style="text;strokeColor=none;fillColor=none;align=left;verticalAlign=top;spacingLeft=4;spacingRight=4;overflow=hidden;rotatable=0;points=[[0,0.5],[1,0.5]];portConstraint=eastwest;whiteSpace=wrap;html=1;rounded=1;fontFamily=Courier New;" vertex="1" parent="9vmZPMfPVr4uKUoQJtwA-185">
          <mxGeometry y="222" width="240" height="26" as="geometry" />
        </mxCell>
        <mxCell id="9vmZPMfPVr4uKUoQJtwA-226" value="# rating: double" style="text;strokeColor=none;fillColor=none;align=left;verticalAlign=top;spacingLeft=4;spacingRight=4;overflow=hidden;rotatable=0;points=[[0,0.5],[1,0.5]];portConstraint=eastwest;whiteSpace=wrap;html=1;rounded=1;fontFamily=Courier New;" vertex="1" parent="9vmZPMfPVr4uKUoQJtwA-185">
          <mxGeometry y="248" width="240" height="26" as="geometry" />
        </mxCell>
        <mxCell id="9vmZPMfPVr4uKUoQJtwA-189" value="Attempt" style="swimlane;fontStyle=0;childLayout=stackLayout;horizontal=1;startSize=26;fillColor=none;horizontalStack=0;resizeParent=1;resizeParentMax=0;resizeLast=0;collapsible=1;marginBottom=0;whiteSpace=wrap;html=1;fontFamily=Courier New;rounded=1;" vertex="1" parent="1">
          <mxGeometry x="285" y="1130" width="320" height="156" as="geometry" />
        </mxCell>
        <mxCell id="9vmZPMfPVr4uKUoQJtwA-190" value="- initDate: Date" style="text;strokeColor=none;fillColor=none;align=left;verticalAlign=top;spacingLeft=4;spacingRight=4;overflow=hidden;rotatable=0;points=[[0,0.5],[1,0.5]];portConstraint=eastwest;whiteSpace=wrap;html=1;fontFamily=Courier New;rounded=1;" vertex="1" parent="9vmZPMfPVr4uKUoQJtwA-189">
          <mxGeometry y="26" width="320" height="26" as="geometry" />
        </mxCell>
        <mxCell id="9vmZPMfPVr4uKUoQJtwA-191" value="- finishDate: Date" style="text;strokeColor=none;fillColor=none;align=left;verticalAlign=top;spacingLeft=4;spacingRight=4;overflow=hidden;rotatable=0;points=[[0,0.5],[1,0.5]];portConstraint=eastwest;whiteSpace=wrap;html=1;fontFamily=Courier New;rounded=1;" vertex="1" parent="9vmZPMfPVr4uKUoQJtwA-189">
          <mxGeometry y="52" width="320" height="26" as="geometry" />
        </mxCell>
        <mxCell id="9vmZPMfPVr4uKUoQJtwA-192" value="- result: String&amp;nbsp;" style="text;strokeColor=none;fillColor=none;align=left;verticalAlign=top;spacingLeft=4;spacingRight=4;overflow=hidden;rotatable=0;points=[[0,0.5],[1,0.5]];portConstraint=eastwest;whiteSpace=wrap;html=1;fontFamily=Courier New;rounded=1;" vertex="1" parent="9vmZPMfPVr4uKUoQJtwA-189">
          <mxGeometry y="78" width="320" height="26" as="geometry" />
        </mxCell>
        <mxCell id="9vmZPMfPVr4uKUoQJtwA-193" value="- grade: double&lt;div&gt;&lt;br&gt;&lt;/div&gt;" style="text;strokeColor=none;fillColor=none;align=left;verticalAlign=top;spacingLeft=4;spacingRight=4;overflow=hidden;rotatable=0;points=[[0,0.5],[1,0.5]];portConstraint=eastwest;whiteSpace=wrap;html=1;fontFamily=Courier New;rounded=1;" vertex="1" parent="9vmZPMfPVr4uKUoQJtwA-189">
          <mxGeometry y="104" width="320" height="26" as="geometry" />
        </mxCell>
        <mxCell id="9vmZPMfPVr4uKUoQJtwA-194" value="- duration: int&lt;div&gt;&lt;div&gt;&lt;br&gt;&lt;/div&gt;&lt;/div&gt;" style="text;strokeColor=none;fillColor=none;align=left;verticalAlign=top;spacingLeft=4;spacingRight=4;overflow=hidden;rotatable=0;points=[[0,0.5],[1,0.5]];portConstraint=eastwest;whiteSpace=wrap;html=1;fontFamily=Courier New;rounded=1;" vertex="1" parent="9vmZPMfPVr4uKUoQJtwA-189">
          <mxGeometry y="130" width="320" height="26" as="geometry" />
        </mxCell>
        <mxCell id="9vmZPMfPVr4uKUoQJtwA-199" style="edgeStyle=orthogonalEdgeStyle;rounded=0;orthogonalLoop=1;jettySize=auto;html=1;endArrow=open;endFill=0;" edge="1" parent="1" source="9vmZPMfPVr4uKUoQJtwA-190" target="9vmZPMfPVr4uKUoQJtwA-137">
          <mxGeometry relative="1" as="geometry">
            <Array as="points">
              <mxPoint x="80" y="1157" />
              <mxPoint x="80" y="690" />
            </Array>
          </mxGeometry>
        </mxCell>
        <mxCell id="9vmZPMfPVr4uKUoQJtwA-200" value="student" style="edgeLabel;html=1;align=center;verticalAlign=middle;resizable=0;points=[];" vertex="1" connectable="0" parent="9vmZPMfPVr4uKUoQJtwA-199">
          <mxGeometry x="-0.7552" y="-3" relative="1" as="geometry">
            <mxPoint x="-1" as="offset" />
          </mxGeometry>
        </mxCell>
        <mxCell id="9vmZPMfPVr4uKUoQJtwA-201" value="1" style="edgeLabel;html=1;align=center;verticalAlign=middle;resizable=0;points=[];" vertex="1" connectable="0" parent="9vmZPMfPVr4uKUoQJtwA-199">
          <mxGeometry x="0.8668" y="-3" relative="1" as="geometry">
            <mxPoint as="offset" />
          </mxGeometry>
        </mxCell>
        <mxCell id="9vmZPMfPVr4uKUoQJtwA-205" style="edgeStyle=orthogonalEdgeStyle;rounded=0;orthogonalLoop=1;jettySize=auto;html=1;endArrow=open;endFill=0;" edge="1" parent="1" source="9vmZPMfPVr4uKUoQJtwA-191" target="9vmZPMfPVr4uKUoQJtwA-185">
          <mxGeometry relative="1" as="geometry">
            <Array as="points">
              <mxPoint x="820" y="1195" />
              <mxPoint x="820" y="1195" />
            </Array>
          </mxGeometry>
        </mxCell>
        <mxCell id="9vmZPMfPVr4uKUoQJtwA-209" value="activity" style="edgeLabel;html=1;align=center;verticalAlign=middle;resizable=0;points=[];" vertex="1" connectable="0" parent="9vmZPMfPVr4uKUoQJtwA-205">
          <mxGeometry x="-0.511" relative="1" as="geometry">
            <mxPoint as="offset" />
          </mxGeometry>
        </mxCell>
        <mxCell id="9vmZPMfPVr4uKUoQJtwA-210" value="1" style="edgeLabel;html=1;align=center;verticalAlign=middle;resizable=0;points=[];" vertex="1" connectable="0" parent="9vmZPMfPVr4uKUoQJtwA-205">
          <mxGeometry x="0.715" y="-1" relative="1" as="geometry">
            <mxPoint as="offset" />
          </mxGeometry>
        </mxCell>
        <mxCell id="9vmZPMfPVr4uKUoQJtwA-241" style="edgeStyle=orthogonalEdgeStyle;rounded=0;orthogonalLoop=1;jettySize=auto;html=1;endArrow=open;endFill=0;" edge="1" parent="1" source="9vmZPMfPVr4uKUoQJtwA-229" target="9vmZPMfPVr4uKUoQJtwA-131">
          <mxGeometry relative="1" as="geometry">
            <Array as="points">
              <mxPoint x="900" y="700" />
            </Array>
          </mxGeometry>
        </mxCell>
        <mxCell id="9vmZPMfPVr4uKUoQJtwA-244" value="1" style="edgeLabel;html=1;align=center;verticalAlign=middle;resizable=0;points=[];" vertex="1" connectable="0" parent="9vmZPMfPVr4uKUoQJtwA-241">
          <mxGeometry x="-0.0964" y="-1" relative="1" as="geometry">
            <mxPoint as="offset" />
          </mxGeometry>
        </mxCell>
        <mxCell id="9vmZPMfPVr4uKUoQJtwA-229" value="Review" style="swimlane;fontStyle=0;childLayout=stackLayout;horizontal=1;startSize=26;fillColor=none;horizontalStack=0;resizeParent=1;resizeParentMax=0;resizeLast=0;collapsible=1;marginBottom=0;whiteSpace=wrap;html=1;fontFamily=Courier New;rounded=1;" vertex="1" parent="1">
          <mxGeometry x="1140" y="620" width="140" height="104" as="geometry" />
        </mxCell>
        <mxCell id="9vmZPMfPVr4uKUoQJtwA-230" value="- content: String" style="text;strokeColor=none;fillColor=none;align=left;verticalAlign=top;spacingLeft=4;spacingRight=4;overflow=hidden;rotatable=0;points=[[0,0.5],[1,0.5]];portConstraint=eastwest;whiteSpace=wrap;html=1;fontFamily=Courier New;rounded=1;" vertex="1" parent="9vmZPMfPVr4uKUoQJtwA-229">
          <mxGeometry y="26" width="140" height="26" as="geometry" />
        </mxCell>
        <mxCell id="9vmZPMfPVr4uKUoQJtwA-231" value="- rating: int" style="text;strokeColor=none;fillColor=none;align=left;verticalAlign=top;spacingLeft=4;spacingRight=4;overflow=hidden;rotatable=0;points=[[0,0.5],[1,0.5]];portConstraint=eastwest;whiteSpace=wrap;html=1;fontFamily=Courier New;rounded=1;" vertex="1" parent="9vmZPMfPVr4uKUoQJtwA-229">
          <mxGeometry y="52" width="140" height="26" as="geometry" />
        </mxCell>
        <mxCell id="9vmZPMfPVr4uKUoQJtwA-232" value="- date: Date" style="text;strokeColor=none;fillColor=none;align=left;verticalAlign=top;spacingLeft=4;spacingRight=4;overflow=hidden;rotatable=0;points=[[0,0.5],[1,0.5]];portConstraint=eastwest;whiteSpace=wrap;html=1;fontFamily=Courier New;rounded=1;" vertex="1" parent="9vmZPMfPVr4uKUoQJtwA-229">
          <mxGeometry y="78" width="140" height="26" as="geometry" />
        </mxCell>
        <mxCell id="9vmZPMfPVr4uKUoQJtwA-255" style="edgeStyle=orthogonalEdgeStyle;rounded=0;orthogonalLoop=1;jettySize=auto;html=1;endArrow=block;endFill=0;" edge="1" parent="1" source="9vmZPMfPVr4uKUoQJtwA-254" target="9vmZPMfPVr4uKUoQJtwA-131">
          <mxGeometry relative="1" as="geometry">
            <Array as="points">
              <mxPoint x="1080" y="500" />
              <mxPoint x="1080" y="352" />
            </Array>
          </mxGeometry>
        </mxCell>
        <mxCell id="9vmZPMfPVr4uKUoQJtwA-256" style="edgeStyle=orthogonalEdgeStyle;rounded=0;orthogonalLoop=1;jettySize=auto;html=1;jumpStyle=arc;jumpSize=20;endArrow=open;endFill=0;" edge="1" parent="1" source="9vmZPMfPVr4uKUoQJtwA-254" target="9vmZPMfPVr4uKUoQJtwA-160">
          <mxGeometry relative="1" as="geometry">
            <Array as="points">
              <mxPoint x="1545" y="880" />
            </Array>
          </mxGeometry>
        </mxCell>
        <mxCell id="9vmZPMfPVr4uKUoQJtwA-258" value="learningPaths" style="edgeLabel;html=1;align=center;verticalAlign=middle;resizable=0;points=[];" vertex="1" connectable="0" parent="9vmZPMfPVr4uKUoQJtwA-256">
          <mxGeometry x="-0.7674" y="-3" relative="1" as="geometry">
            <mxPoint y="94" as="offset" />
          </mxGeometry>
        </mxCell>
        <mxCell id="9vmZPMfPVr4uKUoQJtwA-259" value="0 ... *" style="edgeLabel;html=1;align=center;verticalAlign=middle;resizable=0;points=[];" vertex="1" connectable="0" parent="9vmZPMfPVr4uKUoQJtwA-256">
          <mxGeometry x="0.3519" y="2" relative="1" as="geometry">
            <mxPoint as="offset" />
          </mxGeometry>
        </mxCell>
        <mxCell id="9vmZPMfPVr4uKUoQJtwA-254" value="Professor" style="swimlane;fontStyle=0;childLayout=stackLayout;horizontal=1;startSize=17;fillColor=none;horizontalStack=0;resizeParent=1;resizeParentMax=0;resizeLast=0;collapsible=1;marginBottom=0;whiteSpace=wrap;html=1;fontFamily=Courier New;rounded=1;" vertex="1" parent="1">
          <mxGeometry x="1380" y="470" width="330" height="60" as="geometry" />
        </mxCell>
        <mxCell id="9vmZPMfPVr4uKUoQJtwA-260" style="edgeStyle=orthogonalEdgeStyle;rounded=0;orthogonalLoop=1;jettySize=auto;html=1;jumpStyle=arc;jumpSize=20;endArrow=open;endFill=0;" edge="1" parent="1" source="9vmZPMfPVr4uKUoQJtwA-166" target="9vmZPMfPVr4uKUoQJtwA-254">
          <mxGeometry relative="1" as="geometry">
            <Array as="points">
              <mxPoint x="1610" y="909" />
            </Array>
          </mxGeometry>
        </mxCell>
        <mxCell id="9vmZPMfPVr4uKUoQJtwA-261" value="professor" style="edgeLabel;html=1;align=center;verticalAlign=middle;resizable=0;points=[];" vertex="1" connectable="0" parent="9vmZPMfPVr4uKUoQJtwA-260">
          <mxGeometry x="-0.1946" y="2" relative="1" as="geometry">
            <mxPoint x="2" y="2" as="offset" />
          </mxGeometry>
        </mxCell>
        <mxCell id="9vmZPMfPVr4uKUoQJtwA-262" value="Text" style="edgeLabel;html=1;align=center;verticalAlign=middle;resizable=0;points=[];" vertex="1" connectable="0" parent="9vmZPMfPVr4uKUoQJtwA-260">
          <mxGeometry x="0.6773" y="3" relative="1" as="geometry">
            <mxPoint y="1" as="offset" />
          </mxGeometry>
        </mxCell>
      </root>
    </mxGraphModel>
  </diagram>
</mxfile>
